<?xml version="1.0" encoding="UTF-8" standalone="no"?><!DOCTYPE svg PUBLIC "-//W3C//DTD SVG 1.1//EN" "http://www.w3.org/Graphics/SVG/1.1/DTD/svg11.dtd"><svg width="100%" height="100%" viewBox="0 0 2250 2250" version="1.1" xmlns="http://www.w3.org/2000/svg" xmlns:xlink="http://www.w3.org/1999/xlink" xml:space="preserve" xmlns:serif="http://www.serif.com/" style="fill-rule:evenodd;clip-rule:evenodd;stroke-linejoin:round;stroke-miterlimit:2;"><rect id="Stryker" x="0" y="0" width="2250" height="2250" style="fill:none;"/><g id="Stryker1" serif:id="Stryker"><g><path d="M1256.61,1130.24c-12.029,1.265 -22.246,-0.51 -30.653,-5.325c-8.406,-4.814 -13.513,-12.632 -15.321,-23.455l33.529,-3.524c1.081,5.728 3.942,8.348 8.583,7.86c1.705,-0.179 3.107,-0.733 4.206,-1.663c1.1,-0.93 1.56,-2.247 1.381,-3.952c-0.249,-2.367 -1.729,-4.151 -4.441,-5.35c-2.712,-1.2 -6.866,-2.463 -12.464,-3.79c-6.68,-1.596 -12.241,-3.262 -16.685,-4.997c-4.444,-1.736 -8.4,-4.528 -11.869,-8.377c-3.469,-3.849 -5.5,-9.046 -6.092,-15.591c-0.687,-6.535 0.41,-12.276 3.289,-17.224c2.88,-4.947 7.108,-8.91 12.684,-11.89c5.576,-2.98 12.01,-4.854 19.303,-5.62c12.313,-1.294 22.391,0.519 30.234,5.441c7.843,4.921 12.497,12.524 13.961,22.808l-33.956,3.569c-0.393,-2.832 -1.317,-4.794 -2.773,-5.886c-1.455,-1.091 -3.13,-1.538 -5.024,-1.339c-1.326,0.14 -2.368,0.704 -3.126,1.693c-0.758,0.99 -1.052,2.29 -0.883,3.9c0.239,2.273 1.69,4.012 4.355,5.216c2.664,1.204 6.852,2.559 12.565,4.066c6.594,1.701 12.066,3.424 16.415,5.169c4.35,1.746 8.244,4.401 11.683,7.965c3.439,3.565 5.467,8.284 6.084,14.156c0.647,6.157 -0.289,11.833 -2.807,17.029c-2.518,5.197 -6.521,9.472 -12.01,12.826c-5.489,3.354 -12.212,5.449 -20.168,6.285Z" style="fill:#f1c413;fill-rule:nonzero;"/><path d="M1374.37,1015.15l2.628,25.005l-26.71,2.808l7.945,75.582l-31.541,3.315l-7.944,-75.582l-26.425,2.777l-2.628,-25.005l84.675,-8.9Z" style="fill:#f1c413;fill-rule:nonzero;"/><path d="M1444.05,1109.53l-22.688,-34.1l-0.142,0.014l3.793,36.087l-31.54,3.315l-10.573,-100.588l46.884,-4.927c8.146,-0.856 15.259,-0.144 21.34,2.138c6.082,2.281 10.828,5.757 14.239,10.426c3.412,4.669 5.446,10.129 6.103,16.38c0.707,6.725 -0.537,12.888 -3.73,18.491c-3.194,5.602 -8.176,9.909 -14.946,12.918l25.926,36.202l-34.666,3.644Zm-25.04,-55.112l12.502,-1.314c3.031,-0.319 5.232,-1.245 6.603,-2.777c1.371,-1.533 1.902,-3.767 1.594,-6.703c-0.279,-2.652 -1.279,-4.654 -3.001,-6.005c-1.722,-1.351 -4.052,-1.873 -6.988,-1.564l-12.502,1.314l1.792,17.049Z" style="fill:#f1c413;fill-rule:nonzero;"/><path d="M1574.69,994.101l-28.724,73.834l3.21,30.546l-31.54,3.315l-3.211,-30.546l-43.448,-66.249l36.087,-3.792l19.802,33.972l12.306,-37.347l35.518,-3.733Z" style="fill:#f1c413;fill-rule:nonzero;"/><path d="M1653.18,1087.55l-33.851,-40.54l4.584,43.616l-31.54,3.315l-10.572,-100.587l31.54,-3.315l4.45,42.338l24.391,-45.369l35.66,-3.748l-29.604,51.806l42.449,48.542l-37.507,3.942Z" style="fill:#f1c413;fill-rule:nonzero;"/><path d="M1723.25,1003.91l1.299,12.36l31.256,-3.285l2.494,23.726l-31.256,3.285l1.493,14.208l35.518,-3.733l2.643,25.146l-67.058,7.048l-10.572,-100.587l67.058,-7.048l2.643,25.147l-35.518,3.733Z" style="fill:#f1c413;fill-rule:nonzero;"/><path d="M1829.2,1069.05l-22.688,-34.1l-0.143,0.015l3.793,36.086l-31.54,3.315l-10.572,-100.587l46.884,-4.928c8.145,-0.856 15.259,-0.143 21.34,2.138c6.081,2.282 10.828,5.757 14.239,10.426c3.412,4.669 5.446,10.129 6.103,16.38c0.707,6.725 -0.537,12.888 -3.731,18.491c-3.193,5.603 -8.175,9.909 -14.945,12.919l25.926,36.202l-34.666,3.643Zm-25.041,-55.112l12.503,-1.314c3.031,-0.319 5.232,-1.244 6.603,-2.777c1.371,-1.533 1.902,-3.767 1.594,-6.703c-0.279,-2.652 -1.28,-4.654 -3.002,-6.005c-1.722,-1.351 -4.051,-1.872 -6.987,-1.564l-12.502,1.314l1.791,17.049Z" style="fill:#f1c413;fill-rule:nonzero;"/></g><g><path d="M2250,848.352l-64.452,-16.915l-65.328,-15.457l3.5,45.204l126.28,-12.832Z" style="fill:#a1352b;fill-rule:nonzero;"/><path d="M448.257,1029.37l1675.45,-168.26l-1.749,-17.411l-1675.45,168.26l1.748,17.411Z" style="fill:#f1c413;"/><path d="M2117.68,1086.28l-64.452,-16.624l-65.327,-15.748l3.499,45.204l126.28,-12.832Z" style="fill:#a1352b;fill-rule:nonzero;"/><path d="M649.581,1233.95l1341.95,-134.768l-1.749,-17.411l-1341.95,134.768l1.748,17.411Z" style="fill:#f1c413;"/><path d="M1713.63,801.408l-64.452,-16.623l-65.327,-15.749l3.499,45.204l126.28,-12.832Z" style="fill:#973e37;fill-rule:nonzero;"/><path d="M739.854,899.18l847.619,-85.123l-1.748,-17.411l-847.62,85.123l1.749,17.411Z" style="fill:#f1c413;"/></g><path d="M1676.89,339.389l-172.934,24.243l22.627,-186.402l-55.489,129.027l-12.122,-205.527l-64.109,240.275l-44.984,-90.507c-0,0 25.859,132.259 19.125,132.259c-7.004,0 -82.965,-27.745 -82.965,-27.745l19.125,165.391l12.121,67.881c0,-0 408.36,10.505 399.74,5.118c-8.62,-5.118 -143.572,-104.514 -143.572,-104.514c-0,-0 254.282,34.748 245.662,33.132c-8.62,-1.617 -259.669,-90.508 -259.669,-90.508l154.077,-26.128l-140.07,-21.011l103.437,-44.984Z" style="fill:#f1c413;fill-rule:nonzero;"/><g><path d="M958.073,1220.36c1.647,2.744 80.943,-10.701 121.277,58.718c40.334,69.418 34.023,101.246 34.023,101.246l9.877,-1.098l29.085,-16.188c-0,0 14.816,5.213 8.78,78.473c-6.036,73.26 -12.073,90.271 -48.84,172.037c-36.492,81.765 -54.876,142.678 -54.876,142.678c0,-0 72.711,52.406 96.308,70.79c23.596,18.383 91.368,38.962 41.431,65.851c-49.937,26.89 -238.985,0 -238.985,0c-0,0 -57.346,-29.359 -46.371,-95.21c10.975,-65.851 49.938,-180.542 70.79,-204.962c20.853,-24.42 49.938,-110.85 49.938,-110.85l-81.766,-90.271l-204.962,18.383l-170.665,-34.023l32.926,-139.111l107.008,-20.579l82.04,-6.31l19.207,2.743c-0,0 12.621,-29.358 22.225,-35.943c9.603,-6.586 10.7,-10.153 19.755,-12.073c9.055,-1.921 15.091,-1.647 24.146,-1.098c9.054,0.549 31.279,7.134 48.016,14.542c16.737,7.683 25.792,15.091 29.359,22.774c3.841,7.408 0.274,19.481 0.274,19.481Zm-372.609,435.717c0,-0 31.828,-55.974 69.419,-110.85c37.864,-54.876 49.937,-112.222 49.937,-112.222l-137.739,20.853l-70.79,109.752l-3.567,142.678l32.925,25.518l59.815,-75.729Zm176.976,-610.497c12.896,-13.445 20.853,-24.969 35.121,-40.06c14.267,-15.091 17.834,-21.402 37.864,-33.474c20.03,-12.073 51.584,-31.554 63.656,-42.255c12.073,-10.701 8.506,-7.957 32.103,-27.164c23.597,-19.206 50.76,-36.492 72.985,-57.071c22.225,-20.853 51.584,-47.193 51.584,-47.193c-0,-0 6.311,3.566 6.311,22.224c-0,18.658 -4.939,46.371 -4.939,46.371l-10.701,28.535c-0,0 2.195,20.853 2.744,18.658c0.823,-2.195 171.488,-99.326 171.488,-99.326c-0,0 3.567,-17.286 1.372,-17.286c-2.196,0 -80.12,10.701 -80.12,10.701c0,0 2.195,-42.803 -7.957,-71.339c0,0 18.658,-4.39 32.103,-34.297c13.445,-29.908 6.311,-62.285 6.311,-62.285l118.532,-89.448l25.792,55.151l11.524,-9.878c-0,-0 -9.878,-76.552 -16.463,-106.46c-6.311,-29.907 -21.127,-63.656 -21.127,-63.656l-178.348,110.85l-224.992,149.263l-24.42,33.474l51.584,25.792c-0,0 -6.311,9.329 -8.506,9.329c-2.195,-0 -29.359,17.286 -49.389,53.504l-95.758,123.197l-38.414,85.607l40.06,28.536Zm-257.918,-271.912c63.3,0 114.691,51.392 114.691,114.691c0,63.3 -51.391,114.692 -114.691,114.692c-63.3,-0 -114.691,-51.392 -114.691,-114.692c-0,-63.299 51.391,-114.691 114.691,-114.691Z" style="fill:#e84c3d;fill-rule:nonzero;"/><path d="M958.073,1220.36c1.647,2.744 80.943,-10.701 121.277,58.718c40.334,69.418 34.023,101.246 34.023,101.246l9.877,-1.098l29.085,-16.188c-0,0 14.816,5.213 8.78,78.473c-6.036,73.26 -12.073,90.271 -48.84,172.037c-36.492,81.765 -54.876,142.678 -54.876,142.678c0,-0 72.711,52.406 96.308,70.79c23.596,18.383 91.368,38.962 41.431,65.851c-49.937,26.89 -238.985,0 -238.985,0c-0,0 -57.346,-29.359 -46.371,-95.21c10.975,-65.851 49.938,-180.542 70.79,-204.962c20.853,-24.42 49.938,-110.85 49.938,-110.85l-81.766,-90.271l-204.962,18.383l-170.665,-34.023l32.926,-139.111l107.008,-20.579l82.04,-6.31l19.207,2.743c-0,0 12.621,-29.358 22.225,-35.943c9.603,-6.586 10.7,-10.153 19.755,-12.073c9.055,-1.921 15.091,-1.647 24.146,-1.098c9.054,0.549 31.279,7.134 48.016,14.542c16.737,7.683 25.792,15.091 29.359,22.774c3.841,7.408 0.274,19.481 0.274,19.481Zm-372.609,435.717c0,-0 31.828,-55.974 69.419,-110.85c37.864,-54.876 49.937,-112.222 49.937,-112.222l-137.739,20.853l-70.79,109.752l-3.567,142.678l32.925,25.518l59.815,-75.729Zm176.976,-610.497c12.896,-13.445 20.853,-24.969 35.121,-40.06c14.267,-15.091 17.834,-21.402 37.864,-33.474c20.03,-12.073 51.584,-31.554 63.656,-42.255c12.073,-10.701 8.506,-7.957 32.103,-27.164c23.597,-19.206 50.76,-36.492 72.985,-57.071c22.225,-20.853 51.584,-47.193 51.584,-47.193c-0,-0 6.311,3.566 6.311,22.224c-0,18.658 -4.939,46.371 -4.939,46.371l-10.701,28.535c-0,0 2.195,20.853 2.744,18.658c0.823,-2.195 171.488,-99.326 171.488,-99.326c-0,0 3.567,-17.286 1.372,-17.286c-2.196,0 -80.12,10.701 -80.12,10.701c0,0 2.195,-42.803 -7.957,-71.339c0,0 18.658,-4.39 32.103,-34.297c13.445,-29.908 6.311,-62.285 6.311,-62.285l118.532,-89.448l25.792,55.151l11.524,-9.878c-0,-0 -9.878,-76.552 -16.463,-106.46c-6.311,-29.907 -21.127,-63.656 -21.127,-63.656l-178.348,110.85l-224.992,149.263l-24.42,33.474l51.584,25.792c-0,0 -6.311,9.329 -8.506,9.329c-2.195,-0 -29.359,17.286 -49.389,53.504l-95.758,123.197l-38.414,85.607l40.06,28.536Zm-257.918,-271.912c63.3,0 114.691,51.392 114.691,114.691c0,63.3 -51.391,114.692 -114.691,114.692c-63.3,-0 -114.691,-51.392 -114.691,-114.692c-0,-63.299 51.391,-114.691 114.691,-114.691Z" style="fill:#f1836a;fill-rule:nonzero;"/><path d="M887.752,839.39c-9.65,3.488 -22.987,7.976 -29.553,12.197c-11.25,7.409 -14.542,25.243 -18.658,43.901c-4.116,18.658 -9.329,13.445 -26.066,24.969c-16.738,11.524 -24.969,23.048 -37.591,53.23c-12.621,30.182 2.196,49.937 -10.426,71.888c-12.347,21.95 -119.904,109.477 -119.904,109.477l31.279,58.444l36.493,2.195c-0,-0 -28.262,23.048 -44.999,34.572c-16.737,11.524 -48.016,55.424 -48.016,55.424c-0,0 -1.098,31.28 9.329,43.901c10.426,12.622 34.297,24.146 61.461,21.951c27.164,-2.195 23.048,-20.853 55.425,-33.475c32.377,-12.621 49.114,-5.213 85.607,-1.097c36.492,4.116 40.608,-1.921 57.345,-4.116c16.737,-2.195 103.442,-54.327 103.442,-54.327l-56.248,59.54l78.198,-43.901l-32.377,77.101c0,0 5.213,14.543 20.853,23.872c15.64,9.329 47.194,29.358 65.851,32.376c18.933,3.019 32.377,5.214 39.786,-5.213c7.408,-10.426 5.213,-59.54 5.213,-59.54c-0,-0 12.347,-14.543 24.969,-14.543c12.347,0 13.444,14.543 13.444,14.543c0,-0 -8.231,7.408 -15.64,20.853c-7.408,13.444 -6.31,26.066 -10.426,52.132c-4.116,26.066 -18.658,72.162 -29.084,107.557c-10.427,35.67 -30.182,64.754 -40.609,76.278c-10.426,11.25 -29.084,21.676 -57.345,29.084c-28.261,7.134 -40.609,36.493 -41.706,56.248c-1.098,19.756 39.511,30.182 61.461,64.754c21.951,34.572 -23.048,65.852 -23.048,65.852c0,-0 85.607,23.871 111.673,24.968c26.066,0.823 46.096,4.116 60.638,-7.408c6.86,-5.488 -0.548,-13.993 -10.152,-21.95c7.957,5.487 15.64,10.7 19.481,13.719c9.329,7.133 62.559,56.248 72.985,82.314c10.427,26.066 23.048,65.851 15.64,71.064c-7.408,5.214 -26.066,2.195 -37.59,6.311c-3.567,1.098 -43.627,13.994 -97.68,31.28l-543.548,-0c2.47,-1.647 4.665,-3.567 6.86,-5.214c26.066,-20.853 112.77,-64.754 112.77,-64.754c0,0 11.524,-34.572 20.853,-46.919c9.329,-12.347 38.414,-49.937 71.888,-77.101c33.474,-27.163 62.559,-35.395 62.559,-35.395c-0,0 3.018,-21.95 9.329,-35.395c6.31,-13.444 41.706,-88.625 59.54,-125.117c17.561,-36.493 9.329,-53.23 8.232,-84.51c-1.098,-31.279 -11.524,-49.114 -7.409,-69.967c4.116,-21.127 17.835,-32.377 20.853,-39.785c3.293,-7.134 0,-10.426 -3.018,-13.445c-3.018,-3.018 -37.59,-6.31 -53.23,-4.115c-15.639,1.92 -46.096,7.134 -71.064,9.329c-25.243,2.195 -124.295,5.213 -124.295,5.213c0,-0 -3.292,10.426 -17.834,23.871c-14.543,13.719 -21.951,6.311 -21.951,6.311c0,-0 -20.853,23.871 -30.182,36.492c-9.329,12.622 -48.016,71.065 -48.016,71.065l-7.409,-48.017c0,0 -38.687,69.967 -38.687,72.986c-0,3.018 4.115,31.279 5.213,41.705c1.097,10.427 -4.116,43.901 -4.116,43.901c0,0 31.28,-35.669 41.706,-43.901c10.426,-8.505 10.426,4.116 12.622,13.445c2.195,9.329 -3.019,10.427 -8.232,26.066c-5.213,15.64 -30.182,83.412 -45.821,121.002c-15.64,37.59 -24.969,30.456 -36.493,38.688c-11.524,8.231 -57.62,55.425 -76.278,68.869c-18.658,13.445 -21.676,44.724 -18.658,57.346c3.018,12.621 43.627,36.493 51.035,48.017c7.134,11.524 -8.506,7.408 -23.048,7.408c-5.762,-0 -13.17,0.823 -20.304,1.921l-193.439,-0l18.11,-37.591c-0,0 4.39,-13.719 11.524,-23.048c7.133,-9.329 30.181,-43.901 30.181,-43.901c0,0 16.463,-35.395 23.872,-52.132c7.408,-16.737 -0,-23.048 -0,-43.901c-0,-20.853 -0,-53.23 10.426,-82.314c10.426,-29.084 36.493,-64.754 56.248,-89.722c19.755,-25.243 17.835,-9.604 37.59,-23.048c19.756,-13.445 18.658,-15.64 15.64,-23.872c-3.018,-8.505 -14.542,-8.505 -19.755,-12.621c-5.214,-4.116 -7.134,-6.311 -3.019,-16.737c4.39,-10.427 13.719,-57.62 17.835,-76.278c4.116,-18.658 8.231,-40.608 18.658,-46.919c10.426,-6.311 31.279,-5.213 31.279,-5.213c0,-0 -9.329,-21.951 -11.524,-36.493c-2.195,-14.542 -1.097,-46.919 -1.097,-46.919c-0,-0 -1.921,-5.213 -14.542,-26.066c-12.347,-20.853 -56.248,-77.101 -66.675,-99.052c-10.701,-21.95 -34.572,-30.182 -34.572,-30.182l-103.167,87.802c0,0 -3.018,9.055 -14.817,41.432c-12.072,32.377 -21.401,29.633 -43.352,48.565c-21.95,18.932 -49.937,74.632 -49.937,74.632c0,-0 9.603,2.469 18.109,3.292c8.506,0.823 20.03,8.506 30.456,26.066c10.427,17.561 2.195,16.738 -4.39,18.109c-6.585,1.372 -22.773,-11.798 -28.535,-15.639c-5.762,-3.842 -8.506,-3.567 -8.506,0.823c-0,4.39 9.603,47.193 5.213,51.858c-4.39,4.939 -13.993,3.567 -20.03,2.469c-6.036,-1.097 -10.426,-12.896 -13.17,-20.03c-2.744,-7.133 -6.585,-5.213 -9.054,-0.823c-2.47,4.39 0.548,21.951 -3.842,24.695c-4.39,3.018 -10.975,1.371 -21.402,-1.372c-10.426,-2.744 -3.292,-9.878 -7.133,-15.091c-3.567,-5.214 -9.878,-1.372 -9.878,-1.372c-0,-0 1.372,11.249 0.549,17.56c-0.823,6.311 -15.64,1.098 -20.853,-4.664c-5.214,-5.762 -3.842,-1.921 -8.506,-20.03c-4.665,-18.109 -2.47,-15.365 1.921,-31.005c4.39,-15.64 22.224,-44.175 22.224,-44.175c0,-0 -5.213,-32.377 -5.213,-47.743c0,-15.365 -4.116,-33.748 10.152,-72.436c14.268,-38.688 53.779,-125.392 73.26,-142.678c19.207,-17.286 34.572,-7.134 34.572,-7.134c29.633,-60.089 96.856,-129.233 96.856,-129.233c0,-0 0,-34.572 31.554,-71.339c31.554,-36.493 81.217,-41.706 84.509,-41.706c3.293,-0 12.347,-46.919 12.347,-46.919l57.895,-10.427c-5.488,-8.231 -14.268,-46.37 24.145,-62.559c38.414,-15.914 67.224,12.896 67.224,12.896l-10.153,8.781c0,-0 6.037,2.743 6.586,7.408c0.823,4.664 -4.665,7.957 -4.665,7.957l10.701,8.78c0,0 5.213,-2.744 13.993,0c8.781,2.744 22.225,8.78 22.225,8.78c0,0 0.823,8.232 29.908,0.823c29.084,-7.408 59.54,1.921 63.656,3.019c4.116,1.097 65.577,-34.298 78.199,-40.609c12.621,-6.311 28.261,-13.719 32.377,-23.048c4.39,-9.603 21.127,-33.474 34.571,-44.998c13.72,-11.25 31.554,-17.561 34.572,-3.018c2.901,13.975 39.757,51.009 45.306,55.824l0.242,0.149c11.798,7.409 20.853,24.695 24.42,46.645c3.566,21.95 -0,21.95 -0,21.95c-0,0 -13.171,24.695 -30.731,37.042c-17.56,12.621 -56.248,34.846 -59.266,35.395c-8.506,1.372 4.115,-12.622 4.115,-30.182c0,-17.835 -4.664,-27.164 -4.664,-27.164l8.78,-4.664c0,-0 2.47,2.195 6.311,11.524c3.841,9.329 1.646,38.962 1.646,38.962c0,-0 4.665,-3.567 6.86,-8.78c2.195,-5.213 2.195,-13.994 1.097,-26.615c-1.097,-12.622 -4.116,-20.304 -4.116,-20.304l8.232,-4.665c12.347,11.524 8.78,45.273 8.78,45.273c5.762,-9.329 6.86,-14.542 6.311,-29.633c-0.549,-15.091 -4.116,-23.322 -4.116,-23.322l6.86,-4.116c9.877,13.444 8.505,39.511 11.524,37.316c3.018,-1.921 15.091,-21.676 18.657,-37.316c3.567,-15.64 0.549,-16.737 -4.115,-29.633c-3.801,-10.508 -13.795,-19.012 -17.366,-21.801Zm-10.177,324.146c3.194,0.097 9.159,1.394 9.159,1.394c0,0 24.695,23.871 28.536,30.731c3.841,6.859 1.097,6.311 -4.116,12.073c-5.213,5.762 -10.426,7.408 -20.578,13.17c-10.152,5.762 -12.622,14.268 -14.268,15.365c-1.646,1.098 41.157,16.463 53.23,17.012c10.417,0.473 24.103,-24.181 27.66,-30.951l0.573,-1.103c-3.204,6.316 -30.892,60.619 -38.385,65.528c-7.957,5.213 -60.09,9.329 -90.272,4.665c-30.182,-4.665 -69.692,-5.214 -77.649,-13.171c-7.957,-7.957 -4.116,-18.383 1.097,-26.34c5.213,-7.957 34.846,-38.413 35.944,-40.06l-0,0.549l23.871,0c0,0 -8.506,17.835 -8.506,19.481c0,1.646 9.878,-4.116 21.128,-4.116c11.249,0 23.322,3.293 23.322,3.293c-0,-0 14.268,-9.603 26.889,-15.365c12.622,-5.762 18.933,-7.683 28.536,-11.524c9.603,-3.842 4.116,-9.055 -0.549,-16.463c-4.664,-7.409 -25.792,-21.128 -27.438,-23.323c-0.463,-0.617 0.202,-0.844 1.399,-0.851l0.417,0.006Zm-2.298,24.687c0.009,-0.187 0.078,-0.277 0.208,-0.245c-0,0 -0.078,0.086 -0.208,0.245c-0.067,1.389 3.151,8.084 8.713,8.81c9.604,1.097 15.366,-2.195 15.366,-2.195c-0,-0 -3.567,13.444 -18.109,8.231c-13.171,-4.97 -7.211,-13.316 -5.97,-14.846Zm209.286,-646.137c-0,-0 -25.518,-9.878 -60.09,-6.311c-34.572,3.567 -63.656,6.311 -86.43,17.286c-22.773,10.975 -89.996,54.602 -89.996,54.602c-0,-0 29.907,4.664 52.681,12.621c22.773,7.957 31.828,9.878 31.005,17.286c-0.823,7.134 -26.341,20.03 -26.341,20.03l-80.942,53.504l85.332,38.963c0,-0 60.09,-31.006 78.199,-38.963c18.109,-8.231 49.937,-29.084 62.559,-23.596c12.621,5.487 16.462,7.134 17.286,22.773c0.823,15.64 -9.878,81.766 -9.878,81.766l42.803,-24.42c0,-0 2.744,49.937 10.975,57.345c8.232,7.134 18.11,6.311 20.03,-8.231c1.921,-14.542 -10.975,-97.131 -10.975,-97.131c0,0 17.286,-6.311 23.597,-18.109c6.311,-11.798 9.054,-21.676 5.487,-33.474c-3.567,-11.799 -7.134,-26.341 -7.134,-26.341c0,0 56.249,-38.962 67.224,-49.114c10.975,-9.878 6.311,-33.474 -13.719,-25.517c-20.03,8.231 -182.463,119.904 -185.207,119.904c-2.744,-0 -22.774,0.823 -51.858,14.542c-29.085,13.719 -49.114,23.597 -49.114,23.597l-40.06,-11.799l420.626,-287.002c-0,0 -14.542,-1.92 -33.475,4.665c-18.932,6.585 -172.585,111.124 -172.585,111.124Zm-108.106,127.038c4.391,0 7.957,3.566 7.957,7.957c-0,4.392 -3.566,7.957 -7.957,7.957c-4.392,0 -7.957,-3.565 -7.957,-7.957c-0,-4.391 3.565,-7.957 7.957,-7.957Zm37.864,-27.438c12.347,-9.603 145.422,-104.539 155.3,-110.85c9.878,-6.31 17.011,-7.682 15.639,1.921c-1.371,9.603 2.47,11.25 -16.462,22.774c-18.933,11.249 -142.678,96.307 -150.91,101.246c-8.231,4.939 -15.091,5.762 -17.011,0.549c-1.647,-4.939 5.487,-9.329 13.444,-15.64Zm210.176,-93.838l12.621,42.255l12.073,-9.604l-16.463,-40.883l-8.231,8.232Zm17.835,-12.073l11.249,39.237l11.25,-5.762l-15.091,-39.511l-7.408,6.036Zm16.188,-10.701c0.549,3.842 11.25,40.334 11.25,40.334l12.621,-9.329l-15.639,-35.944l-8.232,4.939Zm-52.407,-15.365c6.361,0 11.524,5.164 11.524,11.524c0,6.36 -5.163,11.524 -11.524,11.524c-6.36,-0 -11.524,-5.164 -11.524,-11.524c0,-6.36 5.164,-11.524 11.524,-11.524Zm32.103,-23.048c6.815,0 12.347,5.533 12.347,12.347c0,6.815 -5.532,12.347 -12.347,12.347c-6.815,0 -12.347,-5.532 -12.347,-12.347c-0,-6.814 5.532,-12.347 12.347,-12.347Zm60.638,-41.431c0,-0 20.03,-12.622 28.261,-15.64c8.232,-3.018 18.109,1.372 22.774,9.329c4.664,7.957 4.39,21.401 -4.939,29.633c-9.329,8.231 -31.554,26.34 -31.554,26.34l-14.542,-49.662Z" style="fill:#973e37;fill-rule:nonzero;"/></g><g><path d="M1254.56,1257.1l-18.44,-20.79l2.362,22.479l-14.258,1.499l-5.39,-51.287l14.258,-1.498l2.324,22.115l13.608,-23.79l16.44,-1.728l-16.226,26.86l22.563,24.327l-17.241,1.813Z" style="fill:#f1c413;fill-rule:nonzero;"/><path d="M1285.9,1201.95l5.391,51.286l-14.259,1.499l-5.39,-51.287l14.258,-1.498Z" style="fill:#f1c413;fill-rule:nonzero;"/><path d="M1312.55,1239.97l15.932,-1.674l1.147,10.912l-30.19,3.173l-5.391,-51.287l14.259,-1.498l4.243,40.374Z" style="fill:#f1c413;fill-rule:nonzero;"/><path d="M1348.27,1236.22l15.932,-1.674l1.147,10.912l-30.191,3.173l-5.39,-51.287l14.258,-1.499l4.244,40.375Z" style="fill:#f1c413;fill-rule:nonzero;"/><path d="M1418.01,1188.07l1.193,11.349l-13.676,1.437l4.197,39.939l-14.258,1.498l-4.198,-39.938l-13.531,1.422l-1.193,-11.348l41.466,-4.359Z" style="fill:#f1c413;fill-rule:nonzero;"/><path d="M1469.23,1182.68l5.391,51.286l-14.259,1.499l-2.164,-20.587l-17.386,1.827l2.164,20.587l-14.259,1.499l-5.39,-51.287l14.258,-1.498l2.026,19.278l17.387,-1.828l-2.026,-19.278l14.258,-1.498Z" style="fill:#f1c413;fill-rule:nonzero;"/><path d="M1492.83,1191.75l0.879,8.366l16.368,-1.721l1.14,10.84l-16.369,1.72l0.971,9.239l18.551,-1.95l1.2,11.422l-32.809,3.448l-5.39,-51.287l32.809,-3.448l1.2,11.421l-18.55,1.95Z" style="fill:#f1c413;fill-rule:nonzero;"/><path d="M1591,1169.88l5.391,51.287l-14.259,1.498l-2.974,-28.298l-6.701,29.315l-11.931,1.254l-12.745,-27.492l2.997,28.517l-14.258,1.499l-5.391,-51.287l17.241,-1.812l16.378,31.965l9.084,-34.641l17.168,-1.805Z" style="fill:#f1c413;fill-rule:nonzero;"/><path d="M1613.12,1167.56l3.127,29.753c0.291,2.765 1.158,4.831 2.601,6.199c1.443,1.369 3.474,1.915 6.093,1.64c2.619,-0.275 4.515,-1.247 5.688,-2.915c1.173,-1.667 1.617,-3.859 1.332,-6.575l-3.127,-29.754l14.258,-1.498l3.127,29.753c0.495,4.704 -0.078,8.822 -1.717,12.353c-1.639,3.531 -4.08,6.313 -7.324,8.346c-3.243,2.032 -6.95,3.268 -11.121,3.706c-4.171,0.439 -7.981,-0.007 -11.43,-1.336c-3.45,-1.329 -6.281,-3.544 -8.495,-6.646c-2.214,-3.102 -3.571,-7.029 -4.07,-11.782l-3.127,-29.753l14.185,-1.491Z" style="fill:#f1c413;fill-rule:nonzero;"/><path d="M1689.58,1159.53l1.193,11.348l-13.676,1.438l4.197,39.938l-14.258,1.499l-4.198,-39.939l-13.531,1.423l-1.192,-11.349l41.465,-4.358Z" style="fill:#f1c413;fill-rule:nonzero;"/><path d="M1731.84,1198.48l-18.186,1.912l-1.885,8.656l-14.986,1.575l13.305,-53.251l16.441,-1.728l24.014,49.329l-15.059,1.583l-3.644,-8.076Zm-4.711,-10.537l-7.272,-16.005l-3.713,17.159l10.985,-1.154Z" style="fill:#f1c413;fill-rule:nonzero;"/><path d="M1802.71,1199.49l-14.259,1.498l-21.999,-26.666l3.012,28.662l-14.258,1.499l-5.391,-51.287l14.259,-1.499l22.037,27.031l-3.05,-29.026l14.258,-1.499l5.391,51.287Z" style="fill:#f1c413;fill-rule:nonzero;"/><path d="M1844.09,1143.29l1.193,11.348l-13.676,1.438l4.197,39.938l-14.258,1.498l-4.198,-39.938l-13.531,1.422l-1.192,-11.348l41.465,-4.358Z" style="fill:#f1c413;fill-rule:nonzero;"/><path d="M1874.2,1192.49c-5.966,0.627 -11.013,-0.277 -15.142,-2.712c-4.13,-2.434 -6.618,-6.279 -7.465,-11.535l15.204,-1.598c0.335,1.779 1.006,3.033 2.014,3.76c1.008,0.728 2.239,1.015 3.694,0.862c1.31,-0.137 2.355,-0.578 3.134,-1.322c0.78,-0.744 1.109,-1.698 0.987,-2.862c-0.158,-1.503 -0.984,-2.593 -2.477,-3.27c-1.493,-0.677 -3.869,-1.359 -7.129,-2.046c-3.463,-0.763 -6.281,-1.558 -8.451,-2.384c-2.171,-0.826 -4.126,-2.166 -5.865,-4.018c-1.739,-1.852 -2.78,-4.403 -3.121,-7.652c-0.347,-3.298 0.181,-6.209 1.582,-8.735c1.402,-2.525 3.494,-4.547 6.277,-6.066c2.782,-1.518 6.016,-2.471 9.702,-2.858c5.965,-0.627 10.877,0.266 14.734,2.68c3.858,2.414 6.173,6.131 6.946,11.149l-15.495,1.628c-0.212,-1.546 -0.807,-2.661 -1.786,-3.342c-0.979,-0.682 -2.171,-0.949 -3.578,-0.801c-1.067,0.112 -1.906,0.519 -2.519,1.221c-0.613,0.702 -0.858,1.635 -0.736,2.799c0.102,0.97 0.566,1.767 1.392,2.391c0.825,0.624 1.823,1.132 2.992,1.524c1.169,0.392 2.885,0.861 5.149,1.408c3.367,0.774 6.162,1.596 8.386,2.465c2.225,0.87 4.204,2.206 5.938,4.01c1.734,1.803 2.759,4.209 3.075,7.216c0.322,3.055 -0.154,5.875 -1.427,8.461c-1.273,2.585 -3.278,4.733 -6.016,6.443c-2.738,1.709 -6.071,2.771 -9.999,3.184Z" style="fill:#f1c413;fill-rule:nonzero;"/></g></g></svg>