<svg width="831" height="441" viewBox="0 0 831 441" fill="none" xmlns="http://www.w3.org/2000/svg">
<path d="M0.0917767 209.62C-4.02822 52.8001 130.902 -10.7799 337.242 1.50011C493.982 10.8301 538.622 44.4001 667.592 36.0101C832.232 25.2901 889.592 219.56 756.502 338.61C652.712 431.45 335.552 470.76 163.632 414.66C43.5918 375.49 2.20178 290.09 0.0917767 209.62Z" fill="url(#paint0_radial)"/>
<path d="M761.862 80.1101C592.702 98.0401 600.752 173.98 659.762 218.81C716.692 262.06 692.132 391.48 549.712 381.44C427.952 372.85 291.512 334.79 200.022 402.07C191.452 408.37 184.142 414 177.932 419.01C225.682 432.56 283.022 439.45 343.202 440.45C343.232 440.45 343.252 440.45 343.282 440.45C352.282 440.6 361.352 440.62 370.452 440.51C370.482 440.51 370.502 440.51 370.532 440.51C373.562 440.47 376.592 440.42 379.632 440.36C379.642 440.36 379.662 440.36 379.672 440.36C388.772 440.16 397.912 439.84 407.062 439.39C407.162 439.39 407.262 439.38 407.362 439.37C416.432 438.92 425.512 438.35 434.582 437.66C434.732 437.65 434.882 437.64 435.032 437.63C438.012 437.4 440.982 437.16 443.962 436.91C444.012 436.91 444.062 436.9 444.122 436.9C450.122 436.39 456.112 435.82 462.092 435.2C462.252 435.18 462.402 435.17 462.562 435.15C465.472 434.85 468.382 434.53 471.292 434.21C471.472 434.19 471.642 434.17 471.822 434.15C477.732 433.48 483.632 432.77 489.502 432C489.602 431.99 489.712 431.97 489.812 431.96C492.672 431.58 495.532 431.2 498.382 430.8C498.632 430.76 498.892 430.73 499.142 430.69C502.002 430.29 504.852 429.88 507.702 429.45C507.752 429.44 507.802 429.43 507.862 429.43C513.652 428.56 519.412 427.65 525.132 426.68C525.412 426.63 525.702 426.58 525.982 426.54C528.722 426.08 531.462 425.6 534.182 425.12C534.402 425.08 534.622 425.04 534.852 425C540.412 424 545.932 422.96 551.412 421.88C551.682 421.83 551.952 421.77 552.222 421.72C554.862 421.19 557.492 420.66 560.122 420.11C560.442 420.04 560.762 419.98 561.082 419.91C563.762 419.35 566.422 418.78 569.072 418.19C569.092 418.18 569.122 418.18 569.142 418.17C571.822 417.58 574.492 416.98 577.142 416.37C577.342 416.32 577.552 416.28 577.752 416.23C580.312 415.64 582.862 415.03 585.402 414.42C585.752 414.33 586.112 414.25 586.462 414.16C588.992 413.55 591.502 412.92 594.002 412.29C594.222 412.23 594.442 412.18 594.662 412.12C597.192 411.48 599.712 410.82 602.212 410.16C602.302 410.14 602.382 410.11 602.472 410.09C604.952 409.43 607.422 408.76 609.872 408.08C610.232 407.98 610.602 407.88 610.962 407.78C613.352 407.11 615.722 406.44 618.082 405.76C618.412 405.67 618.732 405.57 619.062 405.47C623.932 404.05 628.722 402.59 633.452 401.09C633.772 400.99 634.092 400.89 634.412 400.79C636.682 400.07 638.932 399.33 641.162 398.59C641.532 398.47 641.902 398.34 642.262 398.22C644.522 397.46 646.772 396.7 649.002 395.93C649.172 395.87 649.332 395.81 649.502 395.75C651.682 394.99 653.852 394.22 656.002 393.44C656.242 393.35 656.482 393.27 656.712 393.18C658.872 392.4 661.002 391.6 663.122 390.8C663.492 390.66 663.872 390.52 664.242 390.38C666.342 389.58 668.422 388.77 670.482 387.96C670.762 387.85 671.032 387.74 671.312 387.63C673.372 386.81 675.422 385.98 677.452 385.14C677.552 385.1 677.662 385.05 677.762 385.01C679.812 384.16 681.832 383.29 683.842 382.42C684.182 382.27 684.532 382.12 684.872 381.97C686.812 381.12 688.742 380.26 690.642 379.4C690.972 379.25 691.292 379.1 691.612 378.95C693.572 378.05 695.522 377.15 697.442 376.23C697.492 376.21 697.542 376.18 697.592 376.16C699.482 375.25 701.352 374.34 703.202 373.42C703.482 373.28 703.762 373.14 704.042 373C705.842 372.1 707.612 371.18 709.372 370.26C727.842 360.57 743.772 349.99 756.492 338.62C847.582 257.14 849.452 140.42 788.772 78.3101C780.232 78.5201 771.282 79.1101 761.862 80.1101Z" fill="url(#paint1_radial)"/>
<path d="M482.632 325.73L479.082 312.26C503.442 305.85 514.662 301.28 519.772 298.59C513.872 296.96 500.852 294.77 472.342 293.64L472.892 279.72C525.672 281.82 536.232 287.32 537.252 296.71C538.252 305.73 529.622 313.36 482.632 325.73Z" fill="url(#paint2_linear)"/>
<path d="M366.302 336.63C355.392 336.27 338.682 334.93 324.472 332.24C302.642 328.11 292.182 322.14 290.542 312.88C288.542 301.6 300.192 291.75 329.482 279.92L334.692 292.84C309.172 303.14 305.022 309.12 304.372 310.49C305.222 311.5 309.672 315.47 328.952 318.9C342.002 321.22 357.042 322.39 366.762 322.71L366.302 336.63Z" fill="url(#paint3_linear)"/>
<path d="M323.042 223.67C322.002 222.76 297.602 199.17 298.562 170.99C299.112 154.71 305.862 138.85 322.472 126.14L331.602 138.07C318.762 147.89 314.062 161.79 313.642 173.33C312.882 194.36 332.772 212.22 332.972 212.4L323.042 223.67Z" fill="url(#paint4_linear)"/>
<path d="M330.392 248.63C329.042 248.93 295.572 254.57 273.462 237.08C260.682 226.97 251.922 212.14 251.542 191.22L266.562 190.95C266.852 207.11 275.252 219.15 284.292 226.33C300.772 239.42 326.952 234 327.212 233.95L330.392 248.63Z" fill="url(#paint5_linear)"/>
<path d="M483.512 228.42L484.642 213.29C498.642 214.33 509.072 210.85 514.002 203.47C519.862 194.72 518.322 180.37 509.642 163.07L523.202 156.27C537.602 184.98 533.002 202.37 526.612 211.91C518.492 224.03 503.192 229.89 483.512 228.42Z" fill="url(#paint6_linear)"/>
<path d="M578.762 197.78L564.332 192.96C557.322 209.27 547.852 221.94 536.042 228.93C525.652 235.08 501.642 238.03 487.522 236.97L485.042 251.15C508.112 252.01 558.212 254.07 578.762 197.78Z" fill="url(#paint7_linear)"/>
<path d="M581.042 287.05L483.642 272.33L485.782 258.17L583.152 272.89L581.042 287.05Z" fill="url(#paint8_linear)"/>
<path d="M475.592 236.91C467.742 236.91 461.372 230.54 461.372 222.69C461.372 214.84 467.742 208.47 475.592 208.47C483.442 208.47 489.812 214.84 489.812 222.69C489.812 230.54 483.452 236.91 475.592 236.91Z" fill="url(#paint9_radial)"/>
<path d="M478.262 256.95C470.412 256.95 464.042 250.58 464.042 242.73C464.042 234.88 470.412 228.51 478.262 228.51C486.112 228.51 492.482 234.88 492.482 242.73C492.492 250.58 486.122 256.95 478.262 256.95Z" fill="url(#paint10_radial)"/>
<path d="M476.472 276.73C468.622 276.73 462.252 270.36 462.252 262.51C462.252 254.66 468.622 248.29 476.472 248.29C484.322 248.29 490.692 254.66 490.692 262.51C490.692 270.36 484.322 276.73 476.472 276.73Z" fill="url(#paint11_radial)"/>
<path d="M467.322 296.52C459.472 296.52 453.102 290.15 453.102 282.3C453.102 274.45 459.472 268.08 467.322 268.08C475.172 268.08 481.542 274.45 481.542 282.3C481.552 290.16 475.182 296.52 467.322 296.52Z" fill="url(#paint12_radial)"/>
<path d="M407.692 321.01C450.626 321.01 485.432 286.205 485.432 243.27C485.432 200.335 450.626 165.53 407.692 165.53C364.757 165.53 329.952 200.335 329.952 243.27C329.952 286.205 364.757 321.01 407.692 321.01Z" fill="url(#paint13_radial)"/>
<path d="M340.662 282.64H474.722C471.712 287.75 468.132 292.48 464.082 296.76H351.312C347.252 292.49 343.672 287.75 340.662 282.64Z" fill="#D8CFF7"/>
<path d="M415.092 161.36H400.072L402.192 145.93H412.972L415.092 161.36Z" fill="url(#paint14_linear)"/>
<path d="M420.842 170.79C421.522 170.79 422.062 170.2 421.982 169.53C421.182 162.4 415.142 156.85 407.802 156.85C400.462 156.85 394.412 162.4 393.622 169.53C393.542 170.2 394.092 170.79 394.762 170.79H420.842Z" fill="url(#paint15_radial)"/>
<path d="M435.442 276.99H410.362V302.07H435.442V276.99Z" fill="#512BD4"/>
<path d="M414.832 293.02C414.652 293.02 414.502 292.96 414.382 292.84C414.262 292.72 414.192 292.57 414.192 292.41C414.192 292.24 414.252 292.09 414.382 291.97C414.502 291.85 414.652 291.79 414.832 291.79C415.012 291.79 415.162 291.85 415.292 291.97C415.422 292.09 415.482 292.24 415.482 292.41C415.482 292.58 415.422 292.72 415.292 292.84C415.162 292.96 415.012 293.02 414.832 293.02Z" fill="white"/>
<path d="M421.922 292.92H420.772L417.732 288.13C417.652 288.01 417.592 287.88 417.542 287.75H417.512C417.532 287.89 417.552 288.19 417.552 288.65V292.92H416.532V286.4H417.762L420.702 291.08C420.822 291.27 420.902 291.41 420.942 291.48H420.962C420.932 291.31 420.922 291.01 420.922 290.6V286.4H421.942V292.92H421.922Z" fill="white"/>
<path d="M426.882 292.92H423.312V286.4H426.742V287.32H424.372V289.17H426.562V290.08H424.372V292.01H426.882V292.92Z" fill="white"/>
<path d="M431.952 287.32H430.122V292.92H429.062V287.32H427.242V286.4H431.942V287.32H431.952Z" fill="white"/>
<path d="M407.772 149.1C413.681 149.1 418.472 144.309 418.472 138.4C418.472 132.491 413.681 127.7 407.772 127.7C401.862 127.7 397.072 132.491 397.072 138.4C397.072 144.309 401.862 149.1 407.772 149.1Z" fill="#D0C5F3"/>
<path d="M263.862 286.67C257.282 286.39 251.262 285.62 245.942 284.62C222.872 280.3 207.852 271.09 207.222 270.7L215.282 257.72C215.402 257.79 228.902 266 249.332 269.71C276.332 274.62 302.162 269.77 326.092 255.3L333.992 268.38C308.362 283.89 283.632 287.52 263.862 286.67Z" fill="url(#paint16_linear)"/>
<path d="M330.932 128.82L345.722 129.62C349.662 129.86 352.662 133.24 352.422 137.19C352.182 141.13 348.802 144.13 344.852 143.89L329.682 143.08L330.932 128.82Z" fill="url(#paint17_linear)"/>
<path d="M327.952 144.36C336.142 143.25 341.882 135.7 340.762 127.51C339.652 119.32 332.102 113.58 323.912 114.7C315.722 115.81 309.982 123.36 311.102 131.55C312.212 139.74 319.762 145.48 327.952 144.36Z" fill="url(#paint18_radial)"/>
<path d="M320.042 120.88L320.982 106.1C321.262 102.16 324.672 99.2 328.622 99.48C332.562 99.76 335.522 103.17 335.242 107.12L334.272 122.28L320.042 120.88Z" fill="url(#paint19_linear)"/>
<path d="M328.702 123L335.112 109.64C336.842 106.1 341.132 104.62 344.672 106.36C348.212 108.09 349.692 112.38 347.952 115.92L341.382 129.61L328.702 123Z" fill="#D0C5F3"/>
<path d="M310.962 123.07L319.682 139.53C320.812 141.68 323.482 142.5 325.622 141.35L361.092 122.56C363.242 121.43 364.062 118.76 362.912 116.62L354.192 100.16C353.062 98.01 350.392 97.19 348.252 98.34L312.782 117.13C310.652 118.27 309.832 120.93 310.962 123.07Z" fill="#505050"/>
<path d="M352.082 102.78C351.962 102.87 351.842 102.98 351.742 103.11L350.952 104.22C350.362 105.05 350.282 106.15 350.762 107.05L355.492 115.99C355.972 116.89 356.922 117.44 357.932 117.43L359.302 117.4C359.472 117.4 359.612 117.36 359.762 117.3L360.442 118.59C360.772 119.2 360.532 119.95 359.932 120.27L324.102 139.25C323.492 139.58 322.742 139.34 322.422 138.74L313.372 121.67C313.042 121.06 313.282 120.31 313.882 119.99L349.722 101.02C350.332 100.69 351.082 100.93 351.402 101.53L352.082 102.78Z" fill="#F7B548"/>
<path d="M329.682 136.31L324.112 139.26C323.502 139.59 322.752 139.35 322.432 138.75L313.382 121.68C313.052 121.07 313.292 120.32 313.892 120L319.462 117.05L329.682 136.31Z" fill="#969696"/>
<path d="M348.832 120.37L349.632 121.89C350.122 122.83 351.292 123.18 352.222 122.69L353.392 122.08C354.332 121.59 354.682 120.42 354.192 119.49L353.392 117.97C352.902 117.03 351.732 116.68 350.802 117.17L349.632 117.78C348.692 118.27 348.332 119.43 348.832 120.37Z" fill="#FFD590"/>
<path d="M345.692 114.44L346.492 115.96C346.982 116.9 348.152 117.25 349.082 116.76L350.252 116.15C351.192 115.66 351.542 114.49 351.052 113.56L350.252 112.04C349.762 111.1 348.592 110.75 347.662 111.24L346.492 111.85C345.552 112.34 345.202 113.51 345.692 114.44Z" fill="#FFD590"/>
<path d="M343.322 123.28L344.122 124.8C344.612 125.74 345.782 126.09 346.712 125.6L347.882 124.99C348.822 124.5 349.172 123.33 348.682 122.4L347.882 120.88C347.392 119.94 346.222 119.59 345.292 120.08L344.122 120.69C343.182 121.19 342.832 122.34 343.322 123.28Z" fill="#FFD590"/>
<path d="M340.182 117.35L340.982 118.87C341.472 119.81 342.642 120.16 343.572 119.67L344.742 119.06C345.682 118.57 346.032 117.4 345.542 116.47L344.742 114.95C344.252 114.01 343.082 113.66 342.152 114.15L340.982 114.76C340.052 115.26 339.692 116.42 340.182 117.35Z" fill="#FFD590"/>
<path d="M337.832 126.2L338.632 127.72C339.122 128.66 340.292 129.01 341.222 128.52L342.392 127.91C343.332 127.42 343.682 126.25 343.192 125.32L342.392 123.8C341.902 122.86 340.732 122.51 339.802 123L338.632 123.61C337.682 124.09 337.322 125.26 337.832 126.2Z" fill="#FFD590"/>
<path d="M334.692 120.27L335.492 121.79C335.982 122.73 337.152 123.08 338.082 122.59L339.252 121.98C340.192 121.49 340.542 120.32 340.052 119.39L339.252 117.87C338.762 116.93 337.592 116.58 336.662 117.07L335.492 117.68C334.552 118.17 334.182 119.33 334.692 120.27Z" fill="#FFD590"/>
<path d="M342.552 108.52L343.352 110.04C343.842 110.98 345.012 111.33 345.942 110.84L347.112 110.23C348.052 109.74 348.402 108.57 347.912 107.64L347.112 106.12C346.622 105.18 345.452 104.83 344.522 105.32L343.352 105.93C342.412 106.42 342.062 107.58 342.552 108.52Z" fill="#FFD590"/>
<path d="M337.042 111.43L337.842 112.95C338.332 113.89 339.502 114.24 340.432 113.75L341.602 113.14C342.542 112.65 342.892 111.48 342.402 110.55L341.602 109.03C341.112 108.09 339.942 107.74 339.012 108.23L337.842 108.84C336.912 109.33 336.552 110.49 337.042 111.43Z" fill="#FFD590"/>
<path d="M331.552 114.35L332.352 115.87C332.842 116.81 334.012 117.16 334.942 116.67L336.112 116.06C337.052 115.57 337.402 114.4 336.912 113.47L336.112 111.95C335.622 111.01 334.452 110.66 333.522 111.15L332.352 111.76C331.412 112.24 331.062 113.41 331.552 114.35Z" fill="#FFD590"/>
<path d="M305.442 113.16L306.342 119.35C306.902 123.23 310.522 125.92 314.402 125.36C318.282 124.8 320.972 121.18 320.412 117.3L319.512 111.11C318.952 107.23 315.332 104.54 311.452 105.1C307.582 105.67 304.882 109.27 305.442 113.16Z" fill="url(#paint20_linear)"/>
<path d="M316.022 105.89L316.922 112.08C317.482 115.96 321.102 118.65 324.982 118.09C328.862 117.53 331.552 113.91 330.992 110.03L330.092 103.84C329.532 99.9601 325.912 97.2701 322.032 97.8301C318.142 98.3901 315.452 102 316.022 105.89Z" fill="url(#paint21_linear)"/>
<path d="M486.592 151.31L503.732 163.78C506.792 166 511.062 165.32 513.282 162.28C515.502 159.22 514.822 154.95 511.782 152.73L494.642 140.26C491.582 138.04 487.312 138.72 485.092 141.76C482.862 144.81 483.532 149.08 486.592 151.31Z" fill="url(#paint22_linear)"/>
<path d="M528.172 160.89L538.592 151.17C541.352 148.56 541.472 144.21 538.862 141.45C536.252 138.69 531.902 138.57 529.142 141.18L518.462 151.15L528.172 160.89Z" fill="#D0C5F3"/>
<path d="M527.962 153.19L535.492 135.04C536.942 131.52 535.252 127.51 531.742 126.07C528.222 124.62 524.212 126.31 522.772 129.82L517.132 143.3L527.962 153.19Z" fill="#D0C5F3"/>
<path d="M519.642 152.01L522.852 132.61C523.472 128.86 520.952 125.32 517.212 124.69C513.462 124.07 509.922 126.59 509.292 130.33L506.012 150.1L519.642 152.01Z" fill="#D0C5F3"/>
<path d="M515.862 168.83C523.812 168.83 530.262 162.38 530.262 154.43C530.262 146.48 523.812 140.03 515.862 140.03C507.912 140.03 501.462 146.48 501.462 154.43C501.472 162.38 507.912 168.83 515.862 168.83Z" fill="url(#paint23_radial)"/>
<path d="M333.992 236.91C341.842 236.91 348.212 230.54 348.212 222.69C348.212 214.84 341.842 208.47 333.992 208.47C326.142 208.47 319.772 214.84 319.772 222.69C319.772 230.54 326.142 236.91 333.992 236.91Z" fill="url(#paint24_radial)"/>
<path d="M331.322 256.95C339.172 256.95 345.542 250.58 345.542 242.73C345.542 234.88 339.172 228.51 331.322 228.51C323.472 228.51 317.102 234.88 317.102 242.73C317.092 250.58 323.462 256.95 331.322 256.95Z" fill="url(#paint25_radial)"/>
<path d="M333.112 276.73C340.962 276.73 347.332 270.36 347.332 262.51C347.332 254.66 340.962 248.29 333.112 248.29C325.262 248.29 318.892 254.66 318.892 262.51C318.892 270.36 325.262 276.73 333.112 276.73Z" fill="url(#paint26_radial)"/>
<path d="M596.192 276.28L606.172 265.83C608.812 263.03 608.682 258.61 605.872 255.97C603.072 253.33 598.652 253.46 596.012 256.27L585.782 266.99L596.192 276.28Z" fill="url(#paint27_linear)"/>
<path d="M586.252 290.35L598.552 297.93C601.842 299.92 606.132 298.88 608.132 295.59C610.122 292.3 609.082 288.01 605.792 286.01L593.182 278.23L586.252 290.35Z" fill="url(#paint28_linear)"/>
<path d="M591.532 281.8L604.022 289.06C607.362 290.98 611.622 289.82 613.542 286.47C615.462 283.13 614.302 278.87 610.952 276.95L598.142 269.5L591.532 281.8Z" fill="url(#paint29_linear)"/>
<path d="M579.062 292.11L589.642 301.95C592.482 304.55 596.892 304.36 599.492 301.52C602.092 298.68 601.902 294.27 599.062 291.67L588.202 281.58L579.062 292.11Z" fill="url(#paint30_linear)"/>
<path d="M588.242 295.58C596.302 295.58 602.832 289.05 602.832 280.99C602.832 272.93 596.302 266.4 588.242 266.4C580.182 266.4 573.652 272.93 573.652 280.99C573.652 289.04 580.182 295.58 588.242 295.58Z" fill="url(#paint31_radial)"/>
<path d="M340.622 296.52C348.472 296.52 354.842 290.15 354.842 282.3C354.842 274.45 348.472 268.08 340.622 268.08C332.772 268.08 326.402 274.45 326.402 282.3C326.402 290.16 332.762 296.52 340.622 296.52Z" fill="url(#paint32_radial)"/>
<path d="M247.702 270.37L250.552 256.2C251.332 252.43 255.032 250.01 258.802 250.79C262.572 251.57 264.992 255.27 264.212 259.04L261.292 273.57L247.702 270.37Z" fill="url(#paint33_linear)"/>
<path d="M242.142 277.22L228.602 282.28C224.982 283.6 220.982 281.75 219.652 278.13C218.332 274.51 220.182 270.51 223.802 269.18L237.682 263.99L242.142 277.22Z" fill="url(#paint34_linear)"/>
<path d="M241.382 271.83L228.282 265.74C224.802 264.09 223.322 259.93 224.972 256.45C226.622 252.97 230.782 251.49 234.262 253.14L247.702 259.4L241.382 271.83Z" fill="#D0C5F3"/>
<path d="M249.022 288.08L235.402 292.91C231.762 294.17 227.792 292.25 226.532 288.61C225.272 284.97 227.192 281 230.832 279.74L244.792 274.78L249.022 288.08Z" fill="url(#paint35_linear)"/>
<path d="M243.962 289.64C251.822 291.41 259.632 286.47 261.402 278.61C263.172 270.75 258.232 262.94 250.372 261.17C242.512 259.4 234.702 264.34 232.932 272.2C231.162 280.06 236.102 287.87 243.962 289.64Z" fill="url(#paint36_radial)"/>
<path d="M254.672 281.29H166.092C153.122 281.52 152.132 279.67 151.792 279.22H265.842C265.492 279.6 264.802 281.52 254.672 281.29Z" fill="#505050"/>
<path d="M254.332 277.72V219.63C254.332 217.12 252.292 215.08 249.782 215.08H167.852C165.342 215.08 163.302 217.12 163.302 219.63V277.72H254.332Z" fill="#505050"/>
<path d="M247.732 269.51H169.882C168.522 269.51 167.432 268.41 167.432 267.06V221.26C167.432 219.9 168.532 218.81 169.882 218.81H247.732C249.092 218.81 250.182 219.91 250.182 221.26V267.06C250.182 268.41 249.092 269.51 247.732 269.51Z" fill="#72ACF1"/>
<path d="M265.702 279.22H151.902C151.332 279.22 150.872 278.76 150.872 278.19C150.872 277.62 151.332 277.16 151.902 277.16H265.702C266.272 277.16 266.732 277.62 266.732 278.19C266.742 278.76 266.272 279.22 265.702 279.22Z" fill="#969696"/>
<path d="M169.882 269.51H200.542C200.242 263.16 195.012 258.09 188.592 258.09C185.992 258.09 183.582 258.92 181.622 260.34C180.742 252.32 175.012 245.77 167.432 243.65V267.05C167.432 268.41 168.532 269.51 169.882 269.51Z" fill="#A7CBF6"/>
<path d="M200.872 269.51H206.782C204.642 268.55 202.562 268.68 200.872 269.51Z" fill="#7BDDEF"/>
<path d="M186.012 253.44C185.542 253.44 185.132 253.29 184.792 252.97C184.462 252.64 184.292 252.26 184.292 251.81C184.292 251.35 184.452 250.97 184.792 250.64C185.122 250.31 185.522 250.15 186.012 250.15C186.492 250.15 186.902 250.31 187.242 250.64C187.582 250.97 187.752 251.35 187.752 251.81C187.752 252.26 187.572 252.64 187.242 252.97C186.912 253.29 186.492 253.44 186.012 253.44Z" fill="white"/>
<path d="M205.042 253.18H201.952L193.802 240.33C193.592 240 193.432 239.67 193.292 239.32H193.212C193.282 239.69 193.312 240.49 193.312 241.72V253.18H190.572V235.69H193.872L201.752 248.25C202.082 248.78 202.302 249.13 202.402 249.32H202.442C202.362 248.86 202.322 248.07 202.322 246.96V235.69H205.052V253.18H205.042Z" fill="white"/>
<path d="M218.372 253.18H208.792V235.69H217.982V238.16H211.612V243.11H217.472V245.56H211.612V250.73H218.362V253.18H218.372Z" fill="white"/>
<path d="M231.972 238.14H227.072V253.17H224.242V238.14H219.352V235.67H231.972V238.14Z" fill="white"/>
<path d="M529.212 148.67H494.032C490.632 148.67 487.872 145.91 487.872 142.51V111.2C487.872 107.8 490.632 105.04 494.032 105.04H529.212C532.612 105.04 535.372 107.8 535.372 111.2V142.5C535.372 145.91 532.622 148.67 529.212 148.67Z" fill="#28C2D1"/>
<path d="M528.932 123.98L513.132 109.47C512.752 109.12 512.172 109.12 511.782 109.47L507.002 113.85C506.362 114.43 505.332 113.98 505.332 113.12V112.17C505.332 111.62 504.882 111.17 504.332 111.17H501.862C501.312 111.17 500.862 111.62 500.862 112.17V119.04C500.862 119.31 500.742 119.59 500.542 119.77L495.962 123.98C495.292 124.59 495.732 125.71 496.632 125.71H497.342C497.892 125.71 498.342 126.16 498.342 126.71V140.75C498.342 141.3 498.792 141.75 499.342 141.75H525.532C526.082 141.75 526.532 141.3 526.532 140.75V126.7C526.532 126.15 526.982 125.7 527.532 125.7H528.242C529.162 125.7 529.592 124.58 528.932 123.98Z" fill="white"/>
<path d="M509.432 125.21V122.08C509.432 120.36 510.832 118.96 512.552 118.96C514.272 118.96 515.672 120.36 515.672 122.08V125.21H517.762V122.08C517.762 119.2 515.422 116.86 512.542 116.86C509.672 116.86 507.322 119.2 507.322 122.08V125.21H509.432Z" fill="#969696"/>
<path d="M518.262 136.79H506.652C505.072 136.79 503.802 135.51 503.802 133.93V127.43C503.802 125.85 505.082 124.57 506.652 124.57H518.262C519.842 124.57 521.112 125.85 521.112 127.43V133.93C521.112 135.52 519.842 136.79 518.262 136.79Z" fill="#969696"/>
<path d="M513.912 129.54C513.912 128.71 513.232 128.03 512.402 128.03C511.572 128.03 510.892 128.71 510.892 129.54C510.892 130.15 511.252 130.68 511.782 130.92L511.452 133.6H513.412L513.082 130.89C513.572 130.64 513.912 130.13 513.912 129.54Z" fill="white"/>
<path d="M528.512 97.11C536.562 97.1 543.162 103.57 543.212 111.58C543.212 111.67 543.202 111.77 543.202 111.85L544.912 111.84L544.922 111.83C545.002 102.76 537.582 95.38 528.502 95.41L528.512 97.11Z" fill="#C7E0F4"/>
<path d="M528.552 102.91L528.562 104.61C532.452 104.62 535.632 107.75 535.662 111.63C535.662 111.72 535.652 111.82 535.652 111.9L537.362 111.89L537.372 111.88C537.482 106.96 533.482 102.91 528.552 102.91Z" fill="#C7E0F4"/>
<path d="M528.532 99.1499L528.542 100.85C534.512 100.85 539.402 105.65 539.442 111.6C539.442 111.69 539.432 111.79 539.432 111.87L541.142 111.86L541.152 111.85C541.252 104.85 535.532 99.1499 528.532 99.1499Z" fill="#C7E0F4"/>
<path d="M530.252 113.26C531.802 113.26 533.072 112 533.072 110.44C533.072 108.88 531.812 107.62 530.252 107.62C528.702 107.62 527.432 108.88 527.432 110.44C527.432 112 528.692 113.26 530.252 113.26Z" fill="#C7E0F4"/>
<path d="M542.162 138.07C539.552 135.43 535.322 135.34 532.612 137.86L527.032 143.02C524.262 145.62 524.132 149.97 526.722 152.74C529.322 155.51 533.672 155.64 536.442 153.05L541.952 147.96C544.792 145.31 544.892 140.83 542.162 138.07Z" fill="url(#paint37_linear)"/>
<path d="M537.252 125.94C534.642 123.3 530.412 123.21 527.702 125.73L522.122 130.89C519.352 133.49 519.222 137.84 521.812 140.61C524.412 143.38 528.762 143.51 531.532 140.92L537.041 135.83C539.891 133.19 539.992 128.7 537.252 125.94Z" fill="url(#paint38_linear)"/>
<path d="M287.922 184.18L270.782 196.65C267.722 198.87 263.452 198.19 261.232 195.15C259.012 192.09 259.692 187.82 262.732 185.6L279.872 173.13C282.932 170.91 287.202 171.59 289.422 174.63C291.652 177.68 290.982 181.96 287.922 184.18Z" fill="url(#paint39_linear)"/>
<path d="M258.662 201.71C266.612 201.71 273.062 195.26 273.062 187.31C273.062 179.36 266.612 172.91 258.662 172.91C250.712 172.91 244.262 179.36 244.262 187.31C244.262 195.26 250.712 201.71 258.662 201.71Z" fill="url(#paint40_radial)"/>
<path d="M246.932 181.65H282.112C285.512 181.65 288.272 178.89 288.272 175.49V144.18C288.272 140.78 285.512 138.02 282.112 138.02H246.932C243.532 138.02 240.772 140.78 240.772 144.18V175.48C240.782 178.89 243.532 181.65 246.932 181.65Z" fill="#28C2D1"/>
<path d="M267.222 155.24H274.102V152.34H267.222V155.24Z" fill="#FEFFFF"/>
<path d="M269.742 161.05H271.652V155.09H269.742V161.05Z" fill="white"/>
<path d="M251.052 144.91H277.412C278.572 144.91 279.522 145.85 279.522 147.02V151.82C279.522 152.98 278.582 153.93 277.412 153.93H263.212C262.052 153.93 261.102 154.87 261.102 156.04V168.87C261.102 170.5 262.432 171.84 264.072 171.84H279.522V173.79C279.522 174.93 278.602 175.85 277.462 175.85H258.992H251.402H251.052C249.892 175.85 248.942 174.91 248.942 173.74V173.39V171.85V147.02C248.952 145.87 249.892 144.91 251.052 144.91Z" fill="#505050"/>
<path d="M271.762 148.74H274.822C275.262 148.74 275.622 148.38 275.622 147.94C275.622 147.5 275.262 147.14 274.822 147.14H271.762C271.322 147.14 270.962 147.5 270.962 147.94C270.962 148.38 271.322 148.74 271.762 148.74Z" fill="#B3AFAB"/>
<path d="M251.852 152.25H258.412C258.842 152.25 259.182 151.91 259.182 151.48V148.13C259.182 147.7 258.842 147.36 258.412 147.36H251.852C251.422 147.36 251.082 147.7 251.082 148.13V151.48C251.092 151.91 251.442 152.25 251.852 152.25Z" fill="#72ACF1"/>
<path d="M257.322 156.94C258.062 156.94 258.662 156.34 258.662 155.6C258.662 154.86 258.062 154.26 257.322 154.26C256.582 154.26 255.982 154.86 255.982 155.6C255.982 156.34 256.582 156.94 257.322 156.94Z" fill="#77D672"/>
<path d="M252.842 156.94C253.582 156.94 254.182 156.34 254.182 155.6C254.182 154.86 253.582 154.26 252.842 154.26C252.102 154.26 251.502 154.86 251.502 155.6C251.502 156.34 252.102 156.94 252.842 156.94Z" fill="#F7B548"/>
<path d="M264.102 162.08L265.862 171.01C265.962 171.51 266.402 171.88 266.912 171.88H274.592C275.102 171.88 275.542 171.52 275.642 171.01L276.052 168.98H278.152C279.362 168.98 280.332 168 280.332 166.8V164.87C280.332 163.66 279.352 162.69 278.152 162.69H277.302L277.422 162.08C277.552 161.41 277.052 160.8 276.372 160.8H265.152C264.492 160.79 263.972 161.41 264.102 162.08Z" fill="white"/>
<path d="M276.292 167.89L277.102 163.79H278.172C278.772 163.79 279.252 164.27 279.252 164.87V166.8C279.252 167.4 278.772 167.88 278.172 167.88H276.292V167.89Z" fill="white"/>
<path d="M248.042 130.86C239.992 130.85 233.392 137.32 233.342 145.33C233.342 145.42 233.352 145.52 233.352 145.6L231.642 145.59L231.632 145.58C231.552 136.51 238.972 129.13 248.052 129.16L248.042 130.86Z" fill="#C7E0F4"/>
<path d="M248.002 136.65L247.992 138.35C244.102 138.36 240.922 141.49 240.892 145.37C240.892 145.46 240.902 145.56 240.902 145.64L239.192 145.63L239.182 145.62C239.072 140.69 243.072 136.66 248.002 136.65Z" fill="#C7E0F4"/>
<path d="M248.022 132.9L248.012 134.6C242.042 134.6 237.152 139.4 237.112 145.35C237.112 145.44 237.122 145.54 237.122 145.62L235.412 145.61L235.402 145.6C235.312 138.6 241.022 132.9 248.022 132.9Z" fill="#C7E0F4"/>
<path d="M246.302 147.01C247.852 147.01 249.122 145.75 249.122 144.19C249.122 142.63 247.862 141.37 246.302 141.37C244.752 141.37 243.482 142.63 243.482 144.19C243.482 145.74 244.742 147.01 246.302 147.01Z" fill="#C7E0F4"/>
<path d="M232.352 170.94C234.962 168.3 239.192 168.21 241.902 170.73L247.482 175.89C250.252 178.49 250.382 182.84 247.792 185.61C245.192 188.38 240.842 188.51 238.072 185.92L232.562 180.83C229.722 178.19 229.622 173.71 232.352 170.94Z" fill="url(#paint41_linear)"/>
<path d="M237.262 158.82C239.872 156.18 244.102 156.09 246.812 158.61L252.392 163.77C255.162 166.37 255.292 170.72 252.702 173.49C250.102 176.26 245.752 176.39 242.982 173.8L237.472 168.71C234.632 166.06 234.532 161.58 237.262 158.82Z" fill="url(#paint42_linear)"/>
<path d="M547.712 284.89L552.392 285.6C553.122 285.72 553.812 285.2 553.912 284.47L556.472 267.52C556.592 266.79 556.072 266.1 555.342 266L550.662 265.29C549.932 265.17 549.242 265.69 549.142 266.42L546.582 283.37C546.472 284.09 546.982 284.77 547.712 284.89Z" fill="#F7B548"/>
<path d="M548.032 280.56L553.372 281.36C553.582 281.39 553.782 281.24 553.802 281.03L555.362 270.73C555.392 270.52 555.242 270.32 555.032 270.3L549.692 269.5C549.482 269.47 549.282 269.62 549.262 269.83L547.702 280.13C547.672 280.33 547.822 280.53 548.032 280.56Z" fill="#505050"/>
<path d="M548.912 276.82L548.772 277.78L553.722 278.53L553.862 277.58L548.912 276.82Z" fill="#969696"/>
<path d="M548.662 278.41L548.522 279.37L553.472 280.12L553.612 279.16L548.662 278.41Z" fill="#969696"/>
<path d="M551.882 275.33C550.682 275.33 549.712 274.35 549.712 273.16C549.712 271.97 550.692 270.99 551.882 270.99C553.072 270.99 554.052 271.97 554.052 273.16C554.052 274.36 553.082 275.33 551.882 275.33Z" fill="#969696"/>
<path d="M572.562 205.67L588.032 208.06C592.162 208.67 596.002 205.82 596.602 201.69C597.212 197.56 594.362 193.72 590.232 193.12L574.362 190.67L572.562 205.67Z" fill="url(#paint43_linear)"/>
<path d="M593.372 166.79C592.782 166.79 592.292 167.27 592.292 167.87V186.36C592.292 186.95 592.772 187.44 593.372 187.44H633.752C634.342 187.44 634.822 186.96 634.822 186.36V167.87C634.822 167.28 634.342 166.79 633.752 166.79H593.372Z" fill="#7BDDEF"/>
<path d="M581.052 179.96C581.052 179.96 582.662 194.55 585.152 198.84C586.002 200.31 587.582 201.21 589.282 201.21H638.792C640.492 201.21 642.072 200.31 642.922 198.84C645.412 194.55 647.022 179.96 647.022 179.96C647.022 179.96 645.412 165.37 642.922 161.08C642.072 159.61 640.492 158.71 638.792 158.71H589.282C587.582 158.71 586.002 159.61 585.152 161.08C582.672 165.37 581.052 179.96 581.052 179.96Z" fill="#E5E5E1"/>
<path d="M585.152 198.84C586.002 200.31 587.582 201.21 589.282 201.21H638.792C640.492 201.21 642.072 200.31 642.922 198.84C645.412 194.55 647.022 179.96 647.022 179.96H581.052C581.052 179.96 582.672 194.55 585.152 198.84Z" fill="#969696"/>
<path d="M633.752 190.51H593.372C591.082 190.51 589.222 188.65 589.222 186.36V167.87C589.222 165.58 591.082 163.72 593.372 163.72H633.752C636.042 163.72 637.902 165.58 637.902 167.87V186.36C637.902 188.64 636.042 190.51 633.752 190.51Z" fill="#505050"/>
<path d="M599.602 197.23C600.635 197.23 601.472 196.393 601.472 195.36C601.472 194.327 600.635 193.49 599.602 193.49C598.569 193.49 597.732 194.327 597.732 195.36C597.732 196.393 598.569 197.23 599.602 197.23Z" fill="#505050"/>
<path d="M608.982 197.23C610.015 197.23 610.852 196.393 610.852 195.36C610.852 194.327 610.015 193.49 608.982 193.49C607.949 193.49 607.112 194.327 607.112 195.36C607.112 196.393 607.949 197.23 608.982 197.23Z" fill="#505050"/>
<path d="M618.352 197.23C619.385 197.23 620.222 196.393 620.222 195.36C620.222 194.327 619.385 193.49 618.352 193.49C617.319 193.49 616.482 194.327 616.482 195.36C616.482 196.393 617.319 197.23 618.352 197.23Z" fill="#505050"/>
<path d="M627.732 197.23C628.765 197.23 629.602 196.393 629.602 195.36C629.602 194.327 628.765 193.49 627.732 193.49C626.699 193.49 625.862 194.327 625.862 195.36C625.862 196.393 626.699 197.23 627.732 197.23Z" fill="#505050"/>
<path d="M593.372 166.79C592.782 166.79 592.292 167.27 592.292 167.87V186.36C592.292 186.95 592.772 187.44 593.372 187.44H633.752C634.342 187.44 634.822 186.96 634.822 186.36V167.87C634.822 167.28 634.342 166.79 633.752 166.79H593.372Z" fill="#72ACF1"/>
<path d="M598.752 166.79H593.372C592.782 166.79 592.292 167.27 592.292 167.87V186.36C592.292 186.95 592.772 187.44 593.372 187.44H607.422L598.752 166.79Z" fill="#A7CBF6"/>
<path d="M620.452 171.67V172.67L615.572 182.88H614.002L618.862 172.97V172.94H613.382V171.68H620.452V171.67Z" fill="white"/>
<path d="M625.312 173.08H625.282L623.332 174.13L623.042 172.98L625.492 171.67H626.782V182.88H625.312V173.08Z" fill="white"/>
<path d="M631.222 175.59C629.992 175.59 628.982 174.59 628.982 173.35C628.982 172.12 629.982 171.11 631.222 171.11C632.452 171.11 633.462 172.11 633.462 173.35C633.452 174.59 632.452 175.59 631.222 175.59ZM631.222 172.19C630.582 172.19 630.062 172.71 630.062 173.35C630.062 173.99 630.582 174.51 631.222 174.51C631.862 174.51 632.382 173.99 632.382 173.35C632.382 172.72 631.862 172.19 631.222 172.19Z" fill="white"/>
<path d="M576.272 189.6L584.862 176.51C587.122 173.01 586.122 168.33 582.612 166.07C579.112 163.81 574.432 164.81 572.172 168.32L560.432 185.8L576.272 189.6Z" fill="url(#paint44_linear)"/>
<path d="M571.872 211.23C580.603 211.23 587.682 204.152 587.682 195.42C587.682 186.688 580.603 179.61 571.872 179.61C563.14 179.61 556.062 186.688 556.062 195.42C556.062 204.152 563.14 211.23 571.872 211.23Z" fill="url(#paint45_radial)"/>
<path d="M389.182 325.99L400.402 314.14C403.372 310.96 403.202 305.98 400.022 303.01C396.842 300.04 391.862 300.21 388.892 303.39L377.372 315.54L389.182 325.99Z" fill="url(#paint46_linear)"/>
<path d="M462.842 317.66L448.862 309.23C445.152 306.96 443.982 302.11 446.262 298.4C448.532 294.69 453.382 293.52 457.092 295.79L471.422 304.43L462.842 317.66Z" fill="url(#paint47_linear)"/>
<path d="M464.582 315.34C458.822 300.56 452.002 294.99 445.312 295.79C441.222 296.27 402.742 300.84 398.662 301.32C391.972 302.11 386.522 309.13 384.112 324.89C381.692 340.65 385.342 350.37 393.572 349.4C399.712 348.68 405.502 338.85 412.142 335.79C416.452 333.8 425.302 333.05 425.302 333.05C425.302 333.05 435.022 331.59 439.642 332.52C446.762 333.94 454.542 342.16 460.682 341.43C468.902 340.46 470.352 330.13 464.582 315.34Z" fill="url(#paint48_radial)"/>
<path d="M396.962 305.52C401.422 304.99 443.402 300.01 447.862 299.48C451.202 299.09 454.552 300.04 457.812 302.58C453.792 297.32 449.532 295.29 445.312 295.79C441.222 296.27 402.742 300.84 398.662 301.32C394.442 301.82 390.732 304.79 387.942 310.86C390.562 307.64 393.622 305.92 396.962 305.52Z" fill="#605D5A"/>
<path d="M375.472 320.47L376.022 319.55C378.082 316.07 382.572 314.9 386.062 316.96L399.612 325.24C403.092 327.3 404.262 331.79 402.202 335.28L401.652 336.2C399.592 339.68 395.102 340.85 391.612 338.79L378.062 330.51C374.572 328.44 373.422 323.95 375.472 320.47Z" fill="url(#paint49_linear)"/>
<path d="M374.262 330.82C376.462 327.07 381.292 325.83 385.032 328.04L393.322 332.94C397.072 335.14 398.312 339.97 396.102 343.71C393.902 347.46 389.072 348.7 385.332 346.49L377.042 341.59C373.292 339.38 372.042 334.56 374.262 330.82Z" fill="url(#paint50_linear)"/>
<path d="M368.372 338.96C370.232 335.04 374.922 333.36 378.862 335.23L385.152 338.22C389.072 340.08 390.752 344.77 388.882 348.71C387.022 352.63 382.332 354.31 378.392 352.44L372.102 349.45C368.192 347.58 366.512 342.89 368.372 338.96Z" fill="url(#paint51_linear)"/>
<path d="M374.382 345.95C383.492 345.95 390.872 338.57 390.872 329.46C390.872 320.35 383.492 312.97 374.382 312.97C365.272 312.97 357.892 320.35 357.892 329.46C357.892 338.57 365.272 345.95 374.382 345.95Z" fill="url(#paint52_radial)"/>
<path d="M472.532 309.16L471.762 308.41C468.852 305.59 464.212 305.68 461.402 308.6L451.142 318.25C448.322 321.16 448.412 325.8 451.332 328.61L452.102 329.36C455.012 332.18 459.652 332.09 462.462 329.17L472.722 319.52C475.522 316.61 475.432 311.96 472.532 309.16Z" fill="url(#paint53_linear)"/>
<path d="M476.592 317.75C473.472 314.74 468.482 314.81 465.472 317.95L458.782 324.89C455.772 328.01 455.842 333 458.982 336.01C462.102 339.02 467.092 338.95 470.102 335.81L476.792 328.87C479.802 325.75 479.712 320.77 476.592 317.75Z" fill="url(#paint54_linear)"/>
<path d="M483.722 325C480.882 321.71 475.912 321.35 472.622 324.2L467.362 328.76C464.072 331.6 463.712 336.57 466.562 339.86C469.402 343.15 474.372 343.51 477.662 340.66L482.922 336.1C486.212 333.25 486.572 328.29 483.722 325Z" fill="url(#paint55_linear)"/>
<path d="M476.582 335.37C485.692 335.37 493.072 327.99 493.072 318.88C493.072 309.77 485.692 302.39 476.582 302.39C467.472 302.39 460.092 309.77 460.092 318.88C460.092 327.99 467.472 335.37 476.582 335.37Z" fill="url(#paint56_radial)"/>
<path d="M424.832 300.42L424.642 298.82C424.522 297.75 423.422 297 422.202 297.14L420.672 297.32C419.442 297.46 418.562 298.45 418.682 299.52L418.872 301.12L424.832 300.42Z" fill="#33312D"/>
<path d="M411.152 301.94L411.122 301.68C411.002 300.63 410.222 299.85 409.392 299.95L397.232 301.36C396.402 301.46 395.822 302.39 395.942 303.44L395.972 303.7L411.152 301.94Z" fill="#33312D"/>
<path d="M447.592 297.52L447.562 297.26C447.442 296.21 446.662 295.43 445.832 295.53L433.672 296.94C432.842 297.04 432.262 297.97 432.382 299.02L432.412 299.28L447.592 297.52Z" fill="#33312D"/>
<path d="M479.412 243.49C479.412 252.08 477.752 260.28 474.752 267.8C474.022 269.62 472.262 270.82 470.302 270.82H369.702C367.742 270.82 365.972 269.63 365.252 267.8C362.252 260.28 360.592 252.08 360.592 243.49C360.592 239.98 360.872 236.53 361.412 233.17C361.782 230.86 363.802 229.18 366.132 229.18H473.872C476.212 229.18 478.232 230.86 478.592 233.17C479.122 236.54 479.412 239.98 479.412 243.49Z" fill="white"/>
<path d="M443.752 265.3C443.752 265.3 431.102 255.28 428.632 253.43C426.162 251.58 424.002 251.47 421.742 253.43C419.482 255.39 406.812 265.3 406.812 265.3H443.752Z" fill="#A08BE8"/>
<path d="M478.592 233.18C478.222 230.87 476.202 229.19 473.872 229.19H468.342C470.682 229.19 472.702 230.87 473.062 233.18C473.602 236.54 473.882 239.99 473.882 243.5C473.882 248.56 473.292 253.49 472.202 258.22C471.882 259.57 471.522 260.94 471.132 262.28C470.582 264.16 468.642 265.3 466.682 265.3H367.492C365.662 265.3 363.992 264.4 363.432 262.63C363.032 261.32 362.342 258.61 362.342 258.61C364.442 270.05 366.442 270.83 368.872 270.83H369.442H464.782H470.312C472.272 270.83 474.042 269.64 474.762 267.81C477.762 260.29 479.422 252.09 479.422 243.5C479.412 239.98 479.122 236.54 478.592 233.18Z" fill="#512BD4"/>
<path d="M393.643 256.44C397.001 256.39 399.654 251.774 399.57 246.13C399.486 240.486 396.696 235.952 393.339 236.002C389.981 236.052 387.327 240.667 387.412 246.311C387.496 251.955 390.286 256.49 393.643 256.44Z" fill="#512BD4"/>
<path d="M454.472 246.248C454.556 240.604 451.903 235.989 448.545 235.939C445.188 235.888 442.398 240.423 442.313 246.067C442.229 251.711 444.883 256.326 448.241 256.376C451.598 256.427 454.388 251.892 454.472 246.248Z" fill="#512BD4"/>
<path d="M388.842 251.01C388.842 252.45 389.382 253.76 390.252 254.77C391.232 255.84 392.402 256.45 393.642 256.43C396.662 256.39 399.102 252.65 399.502 247.79C398.462 246.22 396.682 245.18 394.652 245.18C391.442 245.19 388.842 247.8 388.842 251.01Z" fill="#8065E0"/>
<path d="M454.362 247.97C453.342 246.31 451.512 245.19 449.422 245.19C446.212 245.19 443.602 247.8 443.602 251.01C443.602 252.17 443.952 253.24 444.532 254.15C445.542 255.53 446.832 256.37 448.252 256.39C451.262 256.44 453.802 252.79 454.362 247.97Z" fill="#8065E0"/>
<path d="M550.142 31.59C490.872 23.05 436.562 7.41 337.262 1.5C337.252 1.5 337.252 1.5 337.242 1.5C337.202 1.5 337.152 1.5 337.112 1.49C334.182 1.32 331.262 1.16 328.352 1.02C327.392 0.97 326.442 0.93 325.482 0.89C323.482 0.8 321.492 0.71 319.502 0.63C318.402 0.59 317.312 0.55 316.222 0.51C314.352 0.44 312.492 0.39 310.632 0.33C309.552 0.3 308.462 0.27 307.382 0.24C305.422 0.19 303.472 0.16 301.522 0.12C300.592 0.1 299.672 0.09 298.742 0.07C295.912 0.03 293.102 0.01 290.302 0C290.012 0 289.722 0 289.432 0C286.912 0 284.412 0.01 281.922 0.03C280.942 0.04 279.982 0.06 279.012 0.07C277.202 0.1 275.392 0.12 273.602 0.16C272.522 0.18 271.442 0.21 270.372 0.24C268.672 0.29 266.982 0.34 265.292 0.39C264.222 0.43 263.152 0.46 262.082 0.5C260.312 0.57 258.552 0.65 256.792 0.73C255.852 0.77 254.912 0.81 253.982 0.86C251.372 1 248.772 1.14 246.192 1.31C245.622 1.35 245.062 1.39 244.492 1.43C242.442 1.57 240.402 1.71 238.372 1.87C237.352 1.95 236.342 2.04 235.332 2.12C233.762 2.25 232.192 2.39 230.632 2.53C229.532 2.63 228.442 2.74 227.352 2.84C225.872 2.99 224.392 3.14 222.932 3.29C221.842 3.41 220.752 3.52 219.672 3.64C218.142 3.81 216.632 3.99 215.122 4.18C214.142 4.3 213.152 4.41 212.172 4.54C209.812 4.84 207.462 5.16 205.132 5.49C204.292 5.61 203.462 5.74 202.632 5.86C201.052 6.09 199.462 6.33 197.892 6.58C196.812 6.75 195.742 6.93 194.672 7.11C193.362 7.33 192.062 7.55 190.762 7.77C189.642 7.97 188.532 8.17 187.422 8.37C186.182 8.6 184.942 8.83 183.712 9.07C182.602 9.28 181.492 9.5 180.392 9.72C179.152 9.97 177.912 10.23 176.682 10.49C175.622 10.71 174.552 10.93 173.502 11.16C171.762 11.54 170.042 11.93 168.332 12.33C166.922 12.66 165.522 13 164.122 13.34C162.952 13.63 161.782 13.91 160.622 14.21C159.502 14.5 158.382 14.8 157.272 15.09C156.232 15.37 155.182 15.65 154.152 15.93C153.012 16.24 151.882 16.56 150.762 16.89C149.772 17.17 148.782 17.46 147.792 17.76C146.662 18.1 145.522 18.43 144.402 18.78C143.452 19.07 142.512 19.38 141.572 19.68C140.442 20.04 139.302 20.4 138.182 20.77C137.452 21.01 136.742 21.26 136.022 21.51C133.722 22.29 131.462 23.09 129.212 23.91C128.392 24.21 127.572 24.51 126.762 24.81C125.622 25.24 124.502 25.68 123.372 26.12C122.562 26.44 121.762 26.75 120.962 27.07C119.842 27.52 118.722 27.98 117.612 28.44C116.842 28.76 116.082 29.09 115.322 29.41C114.202 29.89 113.072 30.37 111.962 30.87C111.282 31.17 110.622 31.48 109.952 31.78C105.912 33.62 101.972 35.54 98.1218 37.54C97.5718 37.83 97.0118 38.11 96.4718 38.4C95.3618 38.99 94.2718 39.59 93.1818 40.19C92.5818 40.52 91.9818 40.86 91.3818 41.19C90.3018 41.8 89.2318 42.41 88.1718 43.04C87.6018 43.37 87.0418 43.71 86.4818 44.05C85.4018 44.7 84.3218 45.35 83.2518 46.01C82.8218 46.28 82.3918 46.56 81.9618 46.83C78.1918 49.22 74.5518 51.7 71.0218 54.27C70.6618 54.53 70.3018 54.79 69.9518 55.05C68.9218 55.81 67.9018 56.59 66.8918 57.37C66.4518 57.71 66.0218 58.04 65.5818 58.38C64.5918 59.16 63.6118 59.95 62.6418 60.74C62.2318 61.07 61.8318 61.41 61.4318 61.74C60.4318 62.57 59.4418 63.41 58.4618 64.26C58.2218 64.47 57.9918 64.68 57.7618 64.89C54.3918 67.86 51.1618 70.93 48.0718 74.1C47.8418 74.34 47.6018 74.57 47.3718 74.82C46.4718 75.76 45.5818 76.71 44.7018 77.67C44.3918 78.01 44.0718 78.36 43.7618 78.7C42.9018 79.65 42.0518 80.61 41.2218 81.58C40.9418 81.91 40.6518 82.25 40.3718 82.58C39.5118 83.6 38.6518 84.62 37.8118 85.66C37.7118 85.79 37.6018 85.92 37.5018 86.05C34.6618 89.6 31.9718 93.27 29.4318 97.05C29.2718 97.29 29.1018 97.53 28.9418 97.77C28.2018 98.88 27.4918 100 26.7818 101.13C26.5518 101.49 26.3318 101.85 26.1118 102.21C25.4218 103.33 24.7418 104.46 24.0818 105.6C23.8818 105.94 23.6918 106.28 23.5018 106.62C22.8118 107.82 22.1318 109.03 21.4718 110.26C21.4418 110.31 21.4218 110.36 21.3918 110.41C19.1718 114.53 17.1218 118.78 15.2318 123.15C15.1118 123.43 14.9918 123.7 14.8718 123.98C14.3318 125.24 13.8218 126.51 13.3118 127.79C13.1518 128.19 12.9918 128.6 12.8318 129C12.3418 130.27 11.8618 131.54 11.3918 132.83C11.2618 133.2 11.1318 133.58 10.9918 133.95C10.5118 135.31 10.0418 136.68 9.5918 138.06C29.6418 149.19 59.2218 155.89 106.102 159.23C211.802 166.78 242.152 26.39 351.282 58.16C458.602 89.47 491.142 75.77 550.142 31.59Z" fill="url(#paint57_radial)"/>
<path opacity="0.68" d="M820.322 128.53C806.732 91.92 779.592 62.02 741.242 46.71C720.802 56.32 706.652 77.08 706.652 101.15C706.652 134.36 733.572 161.29 766.792 161.29C790.132 161.29 810.362 147.97 820.322 128.53Z" fill="url(#paint58_radial)"/>
<path d="M54.1519 241.86C36.4719 241.86 19.9019 246.63 5.65186 254.94C18.4819 311.76 54.5319 366.27 127.642 400.49C141.892 383.69 150.492 361.95 150.492 338.2C150.502 285 107.362 241.86 54.1519 241.86Z" fill="url(#paint59_radial)"/>
<path d="M119.372 168.13C138.58 168.13 154.152 152.558 154.152 133.35C154.152 114.141 138.58 98.5698 119.372 98.5698C100.163 98.5698 84.5918 114.141 84.5918 133.35C84.5918 152.558 100.163 168.13 119.372 168.13Z" fill="url(#paint60_radial)"/>
<path d="M152.972 142.37L152.352 144.39C167.332 155.39 174.172 163.03 172.012 166.81C168.692 172.65 145.082 162.5 113.752 144.68C82.4218 126.85 60.2018 111.24 63.5218 105.4C65.7018 101.57 75.4518 102.97 92.8518 110.41L93.9418 108.72C72.9818 99.5099 57.2018 95.8899 54.5418 100.56C50.7118 107.3 75.6518 128.72 110.252 148.4C144.852 168.09 176.002 178.58 179.842 171.85C182.452 167.28 171.032 155.41 152.972 142.37Z" fill="url(#paint61_linear)"/>
<path d="M221.382 336.32C223.232 336.2 224.612 335.96 226.682 335.65C227.742 335.49 227.742 334.01 226.682 333.86C224.682 333.57 223.382 333.42 221.472 333.37C220.982 333.36 220.592 333 220.552 332.53C220.422 330.77 220.182 328.82 219.862 326.88C219.692 325.86 218.162 325.86 218.002 326.88C217.702 328.8 217.542 330.71 217.492 332.55C217.482 333.02 217.092 333.41 216.602 333.43C214.762 333.52 213.072 333.69 211.602 333.87C210.512 334 210.512 335.51 211.592 335.66C213.302 335.9 215.142 336.13 216.692 336.27C217.152 336.31 217.522 336.67 217.542 337.12C217.642 338.93 217.812 340.6 218.002 342.03C218.142 343.07 219.712 343.08 219.872 342.04C220.122 340.4 220.362 338.63 220.502 337.13C220.552 336.7 220.922 336.35 221.382 336.32Z" fill="#72ACF1"/>
<path d="M79.2919 213.64C79.2919 213.64 74.5219 216.53 71.1319 221.8C69.8919 217.85 63.6819 214.35 63.6819 214.35C63.6819 214.35 69.2419 211.42 71.8419 206.19C74.2919 211.03 79.2919 213.64 79.2919 213.64Z" fill="#72ACF1"/>
<path d="M688.422 266.55C699.368 266.55 708.242 257.676 708.242 246.73C708.242 235.784 699.368 226.91 688.422 226.91C677.475 226.91 668.602 235.784 668.602 246.73C668.602 257.676 677.475 266.55 688.422 266.55Z" fill="url(#paint62_radial)"/>
<path d="M639.852 70.88C642.845 70.88 645.272 68.4534 645.272 65.46C645.272 62.4667 642.845 60.04 639.852 60.04C636.858 60.04 634.432 62.4667 634.432 65.46C634.432 68.4534 636.858 70.88 639.852 70.88Z" fill="#72ACF1"/>
<path d="M613.892 85.7401C616.072 85.6001 617.692 85.3201 620.122 84.9501C621.362 84.7601 621.372 83.0301 620.122 82.8501C617.772 82.5101 616.252 82.3401 614.002 82.2701C613.432 82.2501 612.962 81.8301 612.922 81.2901C612.772 79.2301 612.482 76.9401 612.112 74.6501C611.922 73.4601 610.112 73.4601 609.922 74.6501C609.572 76.9101 609.382 79.1501 609.322 81.3101C609.302 81.8601 608.852 82.3201 608.282 82.3501C606.122 82.4601 604.132 82.6501 602.412 82.8701C601.142 83.0301 601.132 84.8001 602.402 84.9801C604.412 85.2601 606.572 85.5301 608.392 85.6901C608.942 85.7401 609.362 86.1601 609.392 86.6901C609.502 88.8201 609.712 90.7701 609.932 92.4601C610.092 93.6901 611.942 93.7001 612.122 92.4701C612.412 90.5401 612.692 88.4601 612.862 86.7101C612.922 86.1801 613.352 85.7701 613.892 85.7401Z" fill="#72ACF1"/>
<path d="M251.212 401.53C254.432 401.53 257.042 398.92 257.042 395.7C257.042 392.48 254.432 389.87 251.212 389.87C247.992 389.87 245.382 392.48 245.382 395.7C245.382 398.92 247.992 401.53 251.212 401.53Z" fill="#72ACF1"/>
<path d="M217.532 56.0999C220.751 56.0999 223.362 53.4898 223.362 50.2699C223.362 47.0501 220.751 44.4399 217.532 44.4399C214.312 44.4399 211.702 47.0501 211.702 50.2699C211.702 53.4898 214.312 56.0999 217.532 56.0999Z" fill="#72ACF1"/>
<path d="M449.052 92.8899C449.052 92.8899 444.282 95.7799 440.892 101.05C439.652 97.0999 433.442 93.5999 433.442 93.5999C433.442 93.5999 439.002 90.6699 441.602 85.4399C444.062 90.2899 449.052 92.8899 449.052 92.8899Z" fill="#72ACF1"/>
<path d="M747.052 222.89C747.052 222.89 742.282 225.78 738.892 231.05C737.652 227.1 731.442 223.6 731.442 223.6C731.442 223.6 737.002 220.67 739.602 215.44C742.062 220.29 747.052 222.89 747.052 222.89Z" fill="#72ACF1"/>
<path d="M695.522 350.83C697.372 350.71 698.752 350.47 700.822 350.16C701.882 350 701.882 348.52 700.822 348.37C698.822 348.08 697.522 347.93 695.612 347.88C695.122 347.87 694.732 347.51 694.692 347.04C694.562 345.28 694.322 343.33 694.002 341.39C693.832 340.37 692.302 340.37 692.142 341.39C691.842 343.31 691.682 345.22 691.632 347.06C691.622 347.53 691.232 347.92 690.742 347.94C688.902 348.03 687.212 348.2 685.742 348.38C684.652 348.51 684.652 350.02 685.732 350.17C687.442 350.41 689.282 350.64 690.832 350.78C691.292 350.82 691.662 351.18 691.682 351.63C691.782 353.44 691.952 355.11 692.142 356.54C692.282 357.58 693.852 357.59 694.012 356.55C694.262 354.91 694.502 353.14 694.642 351.64C694.692 351.21 695.052 350.86 695.522 350.83Z" fill="#72ACF1"/>
<path d="M570.402 346.67C573.053 346.67 575.202 344.521 575.202 341.87C575.202 339.219 573.053 337.07 570.402 337.07C567.751 337.07 565.602 339.219 565.602 341.87C565.602 344.521 567.751 346.67 570.402 346.67Z" fill="#72ACF1"/>
<path d="M171.672 47.39C173.986 47.39 175.862 45.5141 175.862 43.2C175.862 40.8859 173.986 39.01 171.672 39.01C169.358 39.01 167.482 40.8859 167.482 43.2C167.482 45.5141 169.358 47.39 171.672 47.39Z" fill="#72ACF1"/>
<path d="M486.462 410.74C488.776 410.74 490.652 408.864 490.652 406.55C490.652 404.236 488.776 402.36 486.462 402.36C484.148 402.36 482.272 404.236 482.272 406.55C482.272 408.864 484.148 410.74 486.462 410.74Z" fill="#72ACF1"/>
<path d="M451.302 396.5C452.688 396.5 453.812 395.376 453.812 393.99C453.812 392.604 452.688 391.48 451.302 391.48C449.916 391.48 448.792 392.604 448.792 393.99C448.792 395.376 449.916 396.5 451.302 396.5Z" fill="#72ACF1"/>
<path d="M409.442 43.2C411.292 43.2 412.792 41.7002 412.792 39.85C412.792 37.9998 411.292 36.5 409.442 36.5C407.592 36.5 406.092 37.9998 406.092 39.85C406.092 41.7002 407.592 43.2 409.442 43.2Z" fill="#72ACF1"/>
<defs>
<radialGradient id="paint0_radial" cx="0" cy="0" r="1" gradientUnits="userSpaceOnUse" gradientTransform="translate(405.808 253.539) scale(332.313)">
<stop offset="0.4602" stop-color="#1572E0"/>
<stop offset="0.8725" stop-color="#3E8EED"/>
</radialGradient>
<radialGradient id="paint1_radial" cx="0" cy="0" r="1" gradientUnits="userSpaceOnUse" gradientTransform="translate(470.003 280.32) scale(354.798)">
<stop offset="0.5491" stop-color="#549BEF"/>
<stop offset="0.9925" stop-color="#1C77E2"/>
</radialGradient>
<linearGradient id="paint2_linear" x1="472.349" y1="302.725" x2="537.338" y2="302.725" gradientUnits="userSpaceOnUse">
<stop offset="0.2495" stop-color="#967FE6"/>
<stop offset="1" stop-color="#8A6FE8"/>
</linearGradient>
<linearGradient id="paint3_linear" x1="290.322" y1="308.27" x2="366.762" y2="308.27" gradientUnits="userSpaceOnUse">
<stop offset="0.2495" stop-color="#967FE6"/>
<stop offset="1" stop-color="#8A6FE8"/>
</linearGradient>
<linearGradient id="paint4_linear" x1="300.548" y1="139.493" x2="344.025" y2="210.909" gradientUnits="userSpaceOnUse">
<stop offset="0.2495" stop-color="#967FE6"/>
<stop offset="1" stop-color="#8A6FE8"/>
</linearGradient>
<linearGradient id="paint5_linear" x1="249.293" y1="216.78" x2="332.572" y2="224.154" gradientUnits="userSpaceOnUse">
<stop offset="0.2495" stop-color="#967FE6"/>
<stop offset="1" stop-color="#8A6FE8"/>
</linearGradient>
<linearGradient id="paint6_linear" x1="475.327" y1="214.324" x2="536.343" y2="178.899" gradientUnits="userSpaceOnUse">
<stop offset="0.2495" stop-color="#967FE6"/>
<stop offset="1" stop-color="#8A6FE8"/>
</linearGradient>
<linearGradient id="paint7_linear" x1="484.884" y1="250.594" x2="581.678" y2="203.537" gradientUnits="userSpaceOnUse">
<stop offset="0.2495" stop-color="#967FE6"/>
<stop offset="1" stop-color="#8A6FE8"/>
</linearGradient>
<linearGradient id="paint8_linear" x1="483.638" y1="272.609" x2="583.139" y2="272.609" gradientUnits="userSpaceOnUse">
<stop offset="0.2495" stop-color="#967FE6"/>
<stop offset="1" stop-color="#8A6FE8"/>
</linearGradient>
<radialGradient id="paint9_radial" cx="0" cy="0" r="1" gradientUnits="userSpaceOnUse" gradientTransform="translate(477.807 214.795) rotate(178.212) scale(14.2228)">
<stop stop-color="#8065E0"/>
<stop offset="1" stop-color="#512BD4"/>
</radialGradient>
<radialGradient id="paint10_radial" cx="0" cy="0" r="1" gradientUnits="userSpaceOnUse" gradientTransform="translate(480.482 234.84) rotate(178.212) scale(14.2228)">
<stop stop-color="#8065E0"/>
<stop offset="1" stop-color="#512BD4"/>
</radialGradient>
<radialGradient id="paint11_radial" cx="0" cy="0" r="1" gradientUnits="userSpaceOnUse" gradientTransform="translate(478.686 254.616) rotate(178.212) scale(14.2228)">
<stop stop-color="#8065E0"/>
<stop offset="1" stop-color="#512BD4"/>
</radialGradient>
<radialGradient id="paint12_radial" cx="0" cy="0" r="1" gradientUnits="userSpaceOnUse" gradientTransform="translate(474.54 278.333) rotate(-135.142) scale(14.2238)">
<stop stop-color="#8065E0"/>
<stop offset="1" stop-color="#512BD4"/>
</radialGradient>
<radialGradient id="paint13_radial" cx="0" cy="0" r="1" gradientUnits="userSpaceOnUse" gradientTransform="translate(424.295 209.175) scale(83.3654)">
<stop offset="0.3815" stop-color="#A08BE8"/>
<stop offset="0.9135" stop-color="#8065E0"/>
</radialGradient>
<linearGradient id="paint14_linear" x1="400.071" y1="153.646" x2="415.093" y2="153.646" gradientUnits="userSpaceOnUse">
<stop offset="0.2495" stop-color="#967FE6"/>
<stop offset="1" stop-color="#8A6FE8"/>
</linearGradient>
<radialGradient id="paint15_radial" cx="0" cy="0" r="1" gradientUnits="userSpaceOnUse" gradientTransform="translate(408.282 160.495) scale(18.8845)">
<stop stop-color="#8065E0"/>
<stop offset="1" stop-color="#512BD4"/>
</radialGradient>
<linearGradient id="paint16_linear" x1="319.201" y1="240.04" x2="218.644" y2="292.558" gradientUnits="userSpaceOnUse">
<stop offset="0.2495" stop-color="#967FE6"/>
<stop offset="1" stop-color="#8A6FE8"/>
</linearGradient>
<linearGradient id="paint17_linear" x1="329.685" y1="136.358" x2="352.438" y2="136.358" gradientUnits="userSpaceOnUse">
<stop offset="0.2495" stop-color="#967FE6"/>
<stop offset="1" stop-color="#8A6FE8"/>
</linearGradient>
<radialGradient id="paint18_radial" cx="0" cy="0" r="1" gradientUnits="userSpaceOnUse" gradientTransform="translate(332.057 132.186) rotate(81.7109) scale(16.655)">
<stop stop-color="#8065E0"/>
<stop offset="1" stop-color="#512BD4"/>
</radialGradient>
<linearGradient id="paint19_linear" x1="320.043" y1="110.864" x2="335.261" y2="110.864" gradientUnits="userSpaceOnUse">
<stop offset="0.2495" stop-color="#967FE6"/>
<stop offset="1" stop-color="#8A6FE8"/>
</linearGradient>
<linearGradient id="paint20_linear" x1="305.372" y1="115.228" x2="320.492" y2="115.228" gradientUnits="userSpaceOnUse">
<stop offset="0.2495" stop-color="#967FE6"/>
<stop offset="1" stop-color="#8A6FE8"/>
</linearGradient>
<linearGradient id="paint21_linear" x1="315.947" y1="107.961" x2="331.07" y2="107.961" gradientUnits="userSpaceOnUse">
<stop offset="0.2495" stop-color="#967FE6"/>
<stop offset="1" stop-color="#8A6FE8"/>
</linearGradient>
<linearGradient id="paint22_linear" x1="483.775" y1="152.014" x2="514.589" y2="152.014" gradientUnits="userSpaceOnUse">
<stop offset="0.2495" stop-color="#967FE6"/>
<stop offset="1" stop-color="#8A6FE8"/>
</linearGradient>
<radialGradient id="paint23_radial" cx="0" cy="0" r="1" gradientUnits="userSpaceOnUse" gradientTransform="translate(515.806 146.512) rotate(-30.1392) scale(20.0157)">
<stop stop-color="#8065E0"/>
<stop offset="1" stop-color="#512BD4"/>
</radialGradient>
<radialGradient id="paint24_radial" cx="0" cy="0" r="1" gradientUnits="userSpaceOnUse" gradientTransform="translate(331.78 214.79) rotate(1.78779) scale(14.2228)">
<stop stop-color="#8065E0"/>
<stop offset="1" stop-color="#512BD4"/>
</radialGradient>
<radialGradient id="paint25_radial" cx="0" cy="0" r="1" gradientUnits="userSpaceOnUse" gradientTransform="translate(329.106 234.835) rotate(1.78779) scale(14.2228)">
<stop stop-color="#8065E0"/>
<stop offset="1" stop-color="#512BD4"/>
</radialGradient>
<radialGradient id="paint26_radial" cx="0" cy="0" r="1" gradientUnits="userSpaceOnUse" gradientTransform="translate(330.901 254.609) rotate(1.78779) scale(14.2228)">
<stop stop-color="#8065E0"/>
<stop offset="1" stop-color="#512BD4"/>
</radialGradient>
<linearGradient id="paint27_linear" x1="585.78" y1="265.177" x2="608.068" y2="265.177" gradientUnits="userSpaceOnUse">
<stop offset="0.2495" stop-color="#967FE6"/>
<stop offset="1" stop-color="#8A6FE8"/>
</linearGradient>
<linearGradient id="paint28_linear" x1="586.252" y1="288.589" x2="609.144" y2="288.589" gradientUnits="userSpaceOnUse">
<stop offset="0.2495" stop-color="#967FE6"/>
<stop offset="1" stop-color="#8A6FE8"/>
</linearGradient>
<linearGradient id="paint29_linear" x1="591.533" y1="279.752" x2="614.469" y2="279.752" gradientUnits="userSpaceOnUse">
<stop offset="0.2495" stop-color="#967FE6"/>
<stop offset="1" stop-color="#8A6FE8"/>
</linearGradient>
<linearGradient id="paint30_linear" x1="579.064" y1="292.685" x2="601.329" y2="292.685" gradientUnits="userSpaceOnUse">
<stop offset="0.2495" stop-color="#967FE6"/>
<stop offset="1" stop-color="#8A6FE8"/>
</linearGradient>
<radialGradient id="paint31_radial" cx="0" cy="0" r="1" gradientUnits="userSpaceOnUse" gradientTransform="translate(580.826 279.111) rotate(103.35) scale(20.5929)">
<stop stop-color="#8065E0"/>
<stop offset="1" stop-color="#512BD4"/>
</radialGradient>
<radialGradient id="paint32_radial" cx="0" cy="0" r="1" gradientUnits="userSpaceOnUse" gradientTransform="translate(333.399 278.328) rotate(-44.8583) scale(14.2238)">
<stop stop-color="#8065E0"/>
<stop offset="1" stop-color="#512BD4"/>
</radialGradient>
<linearGradient id="paint33_linear" x1="246.579" y1="264.459" x2="265.119" y2="260.916" gradientUnits="userSpaceOnUse">
<stop offset="0.2495" stop-color="#967FE6"/>
<stop offset="1" stop-color="#8A6FE8"/>
</linearGradient>
<linearGradient id="paint34_linear" x1="219.129" y1="275.853" x2="241.081" y2="271.658" gradientUnits="userSpaceOnUse">
<stop offset="0.2495" stop-color="#967FE6"/>
<stop offset="1" stop-color="#8A6FE8"/>
</linearGradient>
<linearGradient id="paint35_linear" x1="227.039" y1="289.834" x2="247.39" y2="280.467" gradientUnits="userSpaceOnUse">
<stop offset="0.2495" stop-color="#967FE6"/>
<stop offset="1" stop-color="#8A6FE8"/>
</linearGradient>
<radialGradient id="paint36_radial" cx="0" cy="0" r="1" gradientUnits="userSpaceOnUse" gradientTransform="translate(245.868 271.607) rotate(104.665) scale(20.5924)">
<stop stop-color="#8065E0"/>
<stop offset="1" stop-color="#512BD4"/>
</radialGradient>
<linearGradient id="paint37_linear" x1="524.859" y1="145.472" x2="544.145" y2="145.472" gradientUnits="userSpaceOnUse">
<stop offset="0.2495" stop-color="#967FE6"/>
<stop offset="1" stop-color="#8A6FE8"/>
</linearGradient>
<linearGradient id="paint38_linear" x1="519.951" y1="133.343" x2="539.245" y2="133.343" gradientUnits="userSpaceOnUse">
<stop offset="0.2495" stop-color="#967FE6"/>
<stop offset="1" stop-color="#8A6FE8"/>
</linearGradient>
<linearGradient id="paint39_linear" x1="259.924" y1="184.887" x2="290.738" y2="184.887" gradientUnits="userSpaceOnUse">
<stop offset="0.2495" stop-color="#967FE6"/>
<stop offset="1" stop-color="#8A6FE8"/>
</linearGradient>
<radialGradient id="paint40_radial" cx="0" cy="0" r="1" gradientUnits="userSpaceOnUse" gradientTransform="translate(258.624 179.288) rotate(-149.861) scale(20.0156)">
<stop stop-color="#8065E0"/>
<stop offset="1" stop-color="#512BD4"/>
</radialGradient>
<linearGradient id="paint41_linear" x1="230.368" y1="178.345" x2="249.654" y2="178.345" gradientUnits="userSpaceOnUse">
<stop offset="0.2495" stop-color="#967FE6"/>
<stop offset="1" stop-color="#8A6FE8"/>
</linearGradient>
<linearGradient id="paint42_linear" x1="235.276" y1="166.216" x2="254.562" y2="166.216" gradientUnits="userSpaceOnUse">
<stop offset="0.2495" stop-color="#967FE6"/>
<stop offset="1" stop-color="#8A6FE8"/>
</linearGradient>
<linearGradient id="paint43_linear" x1="572.566" y1="199.403" x2="596.694" y2="199.403" gradientUnits="userSpaceOnUse">
<stop offset="0.2495" stop-color="#967FE6"/>
<stop offset="1" stop-color="#8A6FE8"/>
</linearGradient>
<linearGradient id="paint44_linear" x1="560.429" y1="177.229" x2="586.069" y2="177.229" gradientUnits="userSpaceOnUse">
<stop offset="0.2495" stop-color="#967FE6"/>
<stop offset="1" stop-color="#8A6FE8"/>
</linearGradient>
<radialGradient id="paint45_radial" cx="0" cy="0" r="1" gradientUnits="userSpaceOnUse" gradientTransform="translate(565.297 185.974) rotate(54.134) scale(22.3087)">
<stop stop-color="#8065E0"/>
<stop offset="1" stop-color="#512BD4"/>
</radialGradient>
<linearGradient id="paint46_linear" x1="377.37" y1="313.435" x2="402.523" y2="313.435" gradientUnits="userSpaceOnUse">
<stop offset="0.2495" stop-color="#967FE6"/>
<stop offset="1" stop-color="#8A6FE8"/>
</linearGradient>
<linearGradient id="paint47_linear" x1="445.098" y1="306.153" x2="471.421" y2="306.153" gradientUnits="userSpaceOnUse">
<stop offset="0.2495" stop-color="#967FE6"/>
<stop offset="1" stop-color="#8A6FE8"/>
</linearGradient>
<radialGradient id="paint48_radial" cx="0" cy="0" r="1" gradientUnits="userSpaceOnUse" gradientTransform="translate(422.724 353.116) scale(64.3271)">
<stop offset="0.2667" stop-color="#605D5A"/>
<stop offset="1" stop-color="#33312D"/>
</radialGradient>
<linearGradient id="paint49_linear" x1="374.46" y1="327.873" x2="403.217" y2="327.873" gradientUnits="userSpaceOnUse">
<stop offset="0.2495" stop-color="#967FE6"/>
<stop offset="1" stop-color="#8A6FE8"/>
</linearGradient>
<linearGradient id="paint50_linear" x1="373.164" y1="337.263" x2="397.196" y2="337.263" gradientUnits="userSpaceOnUse">
<stop offset="0.2495" stop-color="#967FE6"/>
<stop offset="1" stop-color="#8A6FE8"/>
</linearGradient>
<linearGradient id="paint51_linear" x1="367.614" y1="343.837" x2="389.642" y2="343.837" gradientUnits="userSpaceOnUse">
<stop offset="0.2495" stop-color="#967FE6"/>
<stop offset="1" stop-color="#8A6FE8"/>
</linearGradient>
<radialGradient id="paint52_radial" cx="0" cy="0" r="1" gradientUnits="userSpaceOnUse" gradientTransform="translate(367.143 324.783) rotate(120.537) scale(16.4855)">
<stop stop-color="#8065E0"/>
<stop offset="1" stop-color="#512BD4"/>
</radialGradient>
<linearGradient id="paint53_linear" x1="449.083" y1="318.889" x2="474.762" y2="318.889" gradientUnits="userSpaceOnUse">
<stop offset="0.2495" stop-color="#967FE6"/>
<stop offset="1" stop-color="#8A6FE8"/>
</linearGradient>
<linearGradient id="paint54_linear" x1="456.569" y1="326.876" x2="478.993" y2="326.876" gradientUnits="userSpaceOnUse">
<stop offset="0.2495" stop-color="#967FE6"/>
<stop offset="1" stop-color="#8A6FE8"/>
</linearGradient>
<linearGradient id="paint55_linear" x1="464.645" y1="332.431" x2="485.646" y2="332.431" gradientUnits="userSpaceOnUse">
<stop offset="0.2495" stop-color="#967FE6"/>
<stop offset="1" stop-color="#8A6FE8"/>
</linearGradient>
<radialGradient id="paint56_radial" cx="0" cy="0" r="1" gradientUnits="userSpaceOnUse" gradientTransform="translate(482.371 312.552) rotate(44.0032) scale(16.4855)">
<stop stop-color="#8065E0"/>
<stop offset="1" stop-color="#512BD4"/>
</radialGradient>
<radialGradient id="paint57_radial" cx="0" cy="0" r="1" gradientUnits="userSpaceOnUse" gradientTransform="translate(261.306 -31.9605) scale(378.999)">
<stop offset="0.1052" stop-color="#60A2F0"/>
<stop offset="0.5496" stop-color="#3E8EED"/>
<stop offset="0.9964" stop-color="#1C77E2"/>
</radialGradient>
<radialGradient id="paint58_radial" cx="0" cy="0" r="1" gradientUnits="userSpaceOnUse" gradientTransform="translate(812.543 155.018) scale(115.215)">
<stop offset="0.0176" stop-color="#81B5F3"/>
<stop offset="0.7842" stop-color="#4D97EE"/>
</radialGradient>
<radialGradient id="paint59_radial" cx="0" cy="0" r="1" gradientUnits="userSpaceOnUse" gradientTransform="translate(119.416 215.9) scale(138.558)">
<stop offset="0.0176" stop-color="#81B5F3"/>
<stop offset="1" stop-color="#3E8EED"/>
</radialGradient>
<radialGradient id="paint60_radial" cx="0" cy="0" r="1" gradientUnits="userSpaceOnUse" gradientTransform="translate(94.1154 103.683) rotate(55.6187) scale(86.9844)">
<stop offset="0.0176" stop-color="#81B5F3"/>
<stop offset="1" stop-color="#3E8EED"/>
</radialGradient>
<linearGradient id="paint61_linear" x1="54.154" y1="136.228" x2="180.209" y2="136.228" gradientUnits="userSpaceOnUse">
<stop stop-color="#3789EB"/>
<stop offset="0.4062" stop-color="#69A7F1"/>
</linearGradient>
<radialGradient id="paint62_radial" cx="0" cy="0" r="1" gradientUnits="userSpaceOnUse" gradientTransform="translate(667.722 234.062) scale(53.21)">
<stop offset="0.0176" stop-color="#81B5F3"/>
<stop offset="0.5062" stop-color="#3E8EED"/>
</radialGradient>
</defs>
</svg>
